<svg width="30" height="30" viewBox="0 0 30 30" fill="none" xmlns="http://www.w3.org/2000/svg">
<path fill-rule="evenodd" clip-rule="evenodd" d="M13.2248 7.33257C13.363 6.94269 13.6188 6.60517 13.9571 6.36652C14.2954 6.12787 14.6995 5.99982 15.1138 6.00001H15.9286C16.3823 5.99873 16.8226 6.15375 17.1751 6.43891C17.5276 6.72408 17.7707 7.12193 17.8635 7.56531C17.9563 8.00869 17.8931 8.47046 17.6844 8.87269C17.4758 9.27492 17.1346 9.59298 16.7183 9.77318L14.9736 10.5352C14.8993 10.5674 14.8385 10.6243 14.8016 10.6963H17.0742C17.2935 10.6963 17.5037 10.7833 17.6588 10.9381C17.8138 11.0929 17.9009 11.3028 17.9009 11.5218C17.9009 11.7407 17.8138 11.9506 17.6588 12.1054C17.5037 12.2602 17.2935 12.3472 17.0742 12.3472H13.9391C13.8304 12.3474 13.7228 12.3261 13.6223 12.2847C13.5219 12.2433 13.4306 12.1826 13.3536 12.1059C13.2767 12.0292 13.2157 11.9382 13.1741 11.8379C13.1325 11.7377 13.111 11.6303 13.111 11.5218V10.8548C13.111 10.0598 13.5819 9.34132 14.3108 9.02304L16.0569 8.26101C16.1256 8.2329 16.1823 8.18166 16.217 8.11618C16.2518 8.0507 16.2625 7.97512 16.2473 7.90259C16.232 7.83006 16.1918 7.76516 16.1336 7.71917C16.0753 7.67318 16.0028 7.64901 15.9286 7.65085H15.1138C15.0415 7.65083 14.9711 7.67317 14.9121 7.7148C14.8531 7.75643 14.8085 7.8153 14.7844 7.88329C14.7482 7.98553 14.6921 8.07965 14.6195 8.16027C14.5468 8.24089 14.459 8.30643 14.361 8.35315C14.163 8.44752 13.9356 8.4595 13.7288 8.38647C13.6264 8.35031 13.5321 8.29437 13.4514 8.22183C13.3706 8.1493 13.305 8.0616 13.2582 7.96373C13.1636 7.76609 13.1516 7.53905 13.2248 7.33257ZM21.2993 6.37508C21.4463 6.20787 21.6408 6.08936 21.857 6.03532C22.0732 5.98128 22.3008 5.99428 22.5094 6.07259C22.7179 6.1509 22.8977 6.29081 23.0247 6.47367C23.1516 6.65653 23.2197 6.87367 23.22 7.09617V9.5249C23.4308 9.53682 23.6291 9.62884 23.7741 9.78208C23.9192 9.93532 24 10.1382 24 10.349C24 10.5598 23.9192 10.7627 23.7741 10.9159C23.6291 11.0692 23.4308 11.1612 23.22 11.1731V11.5231C23.22 11.742 23.1329 11.9519 22.9778 12.1067C22.8228 12.2615 22.6125 12.3485 22.3932 12.3485C22.174 12.3485 21.9637 12.2615 21.8086 12.1067C21.6536 11.9519 21.5665 11.742 21.5665 11.5231V11.1744H19.5426C19.3286 11.1748 19.1192 11.1135 18.9393 10.9979C18.7594 10.8824 18.6168 10.7174 18.5285 10.5229C18.4402 10.3283 18.41 10.1125 18.4416 9.90125C18.4732 9.69003 18.5652 9.49239 18.7065 9.33208L21.2993 6.37508ZM20.7371 9.52358L21.5665 8.57665V9.52358H20.7371ZM17.5358 23.9797C16.7241 24.0665 15.9071 23.8731 15.2209 23.4316C11.7964 21.1287 8.84988 18.1869 6.54324 14.768C6.10996 14.0761 5.92745 13.2569 6.02615 12.4469C6.12485 11.6369 6.4988 10.8852 7.0856 10.3173L7.58827 9.81545C7.81363 9.59285 8.11785 9.468 8.43487 9.468C8.75189 9.468 9.05611 9.59285 9.28147 9.81545L11.3186 11.9285C11.5408 12.1513 11.6655 12.4528 11.6655 12.7672C11.6655 13.0815 11.5408 13.383 11.3186 13.6058C11.0957 13.8308 10.9706 14.1345 10.9706 14.451C10.9706 14.7675 11.0957 15.0713 11.3186 15.2963L14.6918 18.664C14.9172 18.8866 15.2214 19.0114 15.5384 19.0114C15.8554 19.0114 16.1596 18.8866 16.385 18.664C16.6081 18.4422 16.9101 18.3177 17.225 18.3177C17.5398 18.3177 17.8419 18.4422 18.065 18.664L20.1815 20.7639C20.4044 20.9889 20.5295 21.2926 20.5295 21.6091C20.5295 21.9256 20.4044 22.2293 20.1815 22.4543L19.6788 22.9562C19.1024 23.5315 18.3462 23.8927 17.5358 23.9797Z" fill="white"/>
</svg>
