<svg width="30" height="30" viewBox="0 0 30 30" fill="none" xmlns="http://www.w3.org/2000/svg">
<path d="M22 12.9927V8.59996C22.0007 8.38994 21.9598 8.18185 21.8798 7.98765C21.7999 7.79344 21.6823 7.61695 21.534 7.46829C21.3856 7.31963 21.2093 7.20173 21.0153 7.12137C20.8212 7.04101 20.6132 6.99976 20.4032 7H16.0128C15.725 7.00059 15.4489 7.11467 15.2446 7.31749L6.46745 16.0919C6.16809 16.3922 6 16.7989 6 17.2229C6 17.647 6.16809 18.0537 6.46745 18.354L10.646 22.5325C10.9462 22.8319 11.3529 23 11.7769 23C12.2009 23 12.6076 22.8319 12.9078 22.5325L21.6825 13.7609C21.8854 13.5566 21.9995 13.2806 22 12.9927ZM18.5714 11.5713C18.3454 11.5713 18.1244 11.5043 17.9365 11.3787C17.7485 11.2531 17.602 11.0746 17.5155 10.8658C17.429 10.657 17.4064 10.4272 17.4505 10.2055C17.4946 9.98384 17.6035 9.78021 17.7633 9.62038C17.9231 9.46055 18.1268 9.35171 18.3485 9.30761C18.5701 9.26352 18.7999 9.28615 19.0088 9.37265C19.2176 9.45915 19.3961 9.60562 19.5217 9.79356C19.6472 9.9815 19.7143 10.2025 19.7143 10.4285C19.7143 10.7316 19.5939 11.0223 19.3795 11.2366C19.1652 11.4509 18.8745 11.5713 18.5714 11.5713Z" fill="white"/>
<path d="M23.4636 9C23.3213 9 23.1849 9.05849 23.0843 9.16261C22.9837 9.26673 22.9272 9.40794 22.9272 9.55518V13.9748L14.1669 23.0423C14.115 23.0934 14.0735 23.1546 14.0449 23.2225C14.0162 23.2905 14.001 23.3636 14 23.4377C13.9991 23.5118 14.0126 23.5853 14.0395 23.654C14.0665 23.7226 14.1065 23.785 14.1571 23.8374C14.2077 23.8898 14.268 23.9312 14.3343 23.9591C14.4006 23.987 14.4717 24.0009 14.5433 24C14.6148 23.999 14.6855 23.9832 14.7511 23.9536C14.8167 23.9239 14.8759 23.8809 14.9253 23.8272L23.7086 14.7361C23.8021 14.6389 23.8759 14.5235 23.9259 14.3966C23.976 14.2697 24.0011 14.1337 24 13.9967V9.55518C24 9.40794 23.9434 9.26673 23.8429 9.16261C23.7423 9.05849 23.6058 9 23.4636 9Z" fill="white"/>
</svg>
