<svg width="30" height="30" viewBox="0 0 30 30" fill="none" xmlns="http://www.w3.org/2000/svg">
<path d="M9.18446 11.915L11.9549 13L15 10L10.6299 10.1699C10.5871 10.1731 10.5457 10.1911 10.5095 10.2222L9.12664 11.3007C9.08363 11.333 9.04875 11.3821 9.02653 11.4416C9.0043 11.5011 8.99575 11.5683 9.00198 11.6344C9.00821 11.7006 9.02892 11.7627 9.06146 11.8127C9.09399 11.8628 9.13684 11.8984 9.18446 11.915Z" fill="white"/>
<path d="M23.3717 8.77376L20.1775 8.04604C19.9089 7.98449 19.6308 7.98465 19.3623 8.04651C19.0937 8.10837 18.8409 8.23048 18.621 8.40455L8.97238 15.8048L6.65531 15.6978C6.52259 15.6931 6.3918 15.7324 6.28142 15.8103C6.17104 15.8883 6.08664 16.0008 6.04013 16.1321C5.99363 16.2633 5.98737 16.4067 6.02224 16.5419C6.05711 16.6772 6.13136 16.7974 6.23448 16.8857L8.49072 18.7746C8.52786 18.8062 8.57207 18.8272 8.61912 18.8357C8.66617 18.8441 8.71448 18.8397 8.75944 18.8227C9.40335 18.5606 11.8016 17.2175 14.6358 15.5748L15.2036 21.7336C15.2085 21.787 15.227 21.8379 15.2572 21.881C15.2875 21.924 15.3283 21.9575 15.3752 21.9779C15.4222 21.9983 15.4735 22.0047 15.5237 21.9966C15.5739 21.9884 15.621 21.966 15.66 21.9316L16.9275 20.8186C16.9969 20.7572 17.0436 20.672 17.0593 20.5778L18.261 13.4665C20.289 12.2786 22.2259 11.1282 23.5897 10.3148C23.7313 10.2335 23.8457 10.1083 23.9176 9.95609C23.9894 9.80387 24.0152 9.63202 23.9914 9.46383C23.9676 9.29564 23.8954 9.13923 23.7845 9.01579C23.6737 8.89236 23.5296 8.80787 23.3717 8.77376Z" fill="white"/>
</svg>
