<svg width="162" height="30" viewBox="0 0 162 30" fill="none" xmlns="http://www.w3.org/2000/svg">
<path d="M10.3033 9.17539L2.32834 10.3316L2.18709 10.3604C1.97326 10.4172 1.77833 10.5297 1.6222 10.6864C1.46607 10.8431 1.35434 11.0385 1.29841 11.2525C1.24249 11.4666 1.24437 11.6917 1.30387 11.9047C1.36337 12.1178 1.47836 12.3113 1.63709 12.4654L7.41459 18.0891L6.05209 26.0329L6.03584 26.1704C6.02275 26.3915 6.06867 26.6122 6.1689 26.8098C6.26913 27.0073 6.42007 27.1747 6.60625 27.2948C6.79244 27.4148 7.0072 27.4833 7.22852 27.493C7.44985 27.5028 7.66979 27.4536 7.86584 27.3504L14.9983 23.6004L22.1146 27.3504L22.2396 27.4079C22.4459 27.4892 22.6701 27.5141 22.8893 27.4801C23.1084 27.4461 23.3146 27.3544 23.4866 27.2145C23.6586 27.0745 23.7903 26.8913 23.8681 26.6837C23.946 26.476 23.9672 26.2514 23.9296 26.0329L22.5658 18.0891L28.3458 12.4641L28.4433 12.3579C28.5826 12.1864 28.6739 11.981 28.708 11.7626C28.742 11.5443 28.7176 11.3209 28.6372 11.1151C28.5568 10.9092 28.4232 10.7284 28.2502 10.591C28.0771 10.4536 27.8708 10.3646 27.6521 10.3329L19.6771 9.17539L16.1121 1.95039C16.0089 1.74106 15.8492 1.56479 15.6511 1.44152C15.4529 1.31826 15.2242 1.25293 14.9908 1.25293C14.7575 1.25293 14.5288 1.31826 14.3306 1.44152C14.1324 1.56479 13.9727 1.74106 13.8696 1.95039L10.3033 9.17539Z" fill="#F24E1E"/>
<path d="M43.3033 9.17539L35.3283 10.3316L35.1871 10.3604C34.9733 10.4172 34.7783 10.5297 34.6222 10.6864C34.4661 10.8431 34.3543 11.0385 34.2984 11.2525C34.2425 11.4666 34.2444 11.6917 34.3039 11.9047C34.3634 12.1178 34.4784 12.3113 34.6371 12.4654L40.4146 18.0891L39.0521 26.0329L39.0358 26.1704C39.0227 26.3915 39.0687 26.6122 39.1689 26.8098C39.2691 27.0073 39.4201 27.1747 39.6063 27.2948C39.7924 27.4148 40.0072 27.4833 40.2285 27.493C40.4498 27.5028 40.6698 27.4536 40.8658 27.3504L47.9983 23.6004L55.1146 27.3504L55.2396 27.4079C55.4459 27.4892 55.6701 27.5141 55.8893 27.4801C56.1084 27.4461 56.3146 27.3544 56.4866 27.2145C56.6586 27.0745 56.7903 26.8913 56.8681 26.6837C56.946 26.476 56.9672 26.2514 56.9296 26.0329L55.5658 18.0891L61.3458 12.4641L61.4433 12.3579C61.5826 12.1864 61.6739 11.981 61.708 11.7626C61.742 11.5443 61.7176 11.3209 61.6372 11.1151C61.5568 10.9092 61.4232 10.7284 61.2502 10.591C61.0771 10.4536 60.8708 10.3646 60.6521 10.3329L52.6771 9.17539L49.1121 1.95039C49.0089 1.74106 48.8492 1.56479 48.6511 1.44152C48.4529 1.31826 48.2242 1.25293 47.9908 1.25293C47.7575 1.25293 47.5288 1.31826 47.3306 1.44152C47.1324 1.56479 46.9727 1.74106 46.8696 1.95039L43.3033 9.17539Z" fill="#F24E1E"/>
<path d="M76.3033 9.17539L68.3283 10.3316L68.1871 10.3604C67.9733 10.4172 67.7783 10.5297 67.6222 10.6864C67.4661 10.8431 67.3543 11.0385 67.2984 11.2525C67.2425 11.4666 67.2444 11.6917 67.3039 11.9047C67.3634 12.1178 67.4784 12.3113 67.6371 12.4654L73.4146 18.0891L72.0521 26.0329L72.0358 26.1704C72.0227 26.3915 72.0687 26.6122 72.1689 26.8098C72.2691 27.0073 72.4201 27.1747 72.6063 27.2948C72.7924 27.4148 73.0072 27.4833 73.2285 27.493C73.4498 27.5028 73.6698 27.4536 73.8658 27.3504L80.9983 23.6004L88.1146 27.3504L88.2396 27.4079C88.4459 27.4892 88.6701 27.5141 88.8893 27.4801C89.1084 27.4461 89.3146 27.3544 89.4866 27.2145C89.6586 27.0745 89.7903 26.8913 89.8681 26.6837C89.946 26.476 89.9672 26.2514 89.9296 26.0329L88.5658 18.0891L94.3458 12.4641L94.4433 12.3579C94.5826 12.1864 94.6739 11.981 94.708 11.7626C94.742 11.5443 94.7176 11.3209 94.6372 11.1151C94.5568 10.9092 94.4232 10.7284 94.2502 10.591C94.0771 10.4536 93.8708 10.3646 93.6521 10.3329L85.6771 9.17539L82.1121 1.95039C82.0089 1.74106 81.8492 1.56479 81.6511 1.44152C81.4529 1.31826 81.2242 1.25293 80.9908 1.25293C80.7575 1.25293 80.5288 1.31826 80.3306 1.44152C80.1324 1.56479 79.9727 1.74106 79.8696 1.95039L76.3033 9.17539Z" fill="#F24E1E"/>
<path d="M109.303 9.17539L101.328 10.3316L101.187 10.3604C100.973 10.4172 100.778 10.5297 100.622 10.6864C100.466 10.8431 100.354 11.0385 100.298 11.2525C100.242 11.4666 100.244 11.6917 100.304 11.9047C100.363 12.1178 100.478 12.3113 100.637 12.4654L106.415 18.0891L105.052 26.0329L105.036 26.1704C105.023 26.3915 105.069 26.6122 105.169 26.8098C105.269 27.0073 105.42 27.1747 105.606 27.2948C105.792 27.4148 106.007 27.4833 106.229 27.493C106.45 27.5028 106.67 27.4536 106.866 27.3504L113.998 23.6004L121.115 27.3504L121.24 27.4079C121.446 27.4892 121.67 27.5141 121.889 27.4801C122.108 27.4461 122.315 27.3544 122.487 27.2145C122.659 27.0745 122.79 26.8913 122.868 26.6837C122.946 26.476 122.967 26.2514 122.93 26.0329L121.566 18.0891L127.346 12.4641L127.443 12.3579C127.583 12.1864 127.674 11.981 127.708 11.7626C127.742 11.5443 127.718 11.3209 127.637 11.1151C127.557 10.9092 127.423 10.7284 127.25 10.591C127.077 10.4536 126.871 10.3646 126.652 10.3329L118.677 9.17539L115.112 1.95039C115.009 1.74106 114.849 1.56479 114.651 1.44152C114.453 1.31826 114.224 1.25293 113.991 1.25293C113.757 1.25293 113.529 1.31826 113.331 1.44152C113.132 1.56479 112.973 1.74106 112.87 1.95039L109.303 9.17539Z" fill="#F24E1E"/>
<path d="M142.303 9.17539L134.328 10.3316L134.187 10.3604C133.973 10.4172 133.778 10.5297 133.622 10.6864C133.466 10.8431 133.354 11.0385 133.298 11.2525C133.242 11.4666 133.244 11.6917 133.304 11.9047C133.363 12.1178 133.478 12.3113 133.637 12.4654L139.415 18.0891L138.052 26.0329L138.036 26.1704C138.023 26.3915 138.069 26.6122 138.169 26.8098C138.269 27.0073 138.42 27.1747 138.606 27.2948C138.792 27.4148 139.007 27.4833 139.229 27.493C139.45 27.5028 139.67 27.4536 139.866 27.3504L146.998 23.6004L154.115 27.3504L154.24 27.4079C154.446 27.4892 154.67 27.5141 154.889 27.4801C155.108 27.4461 155.315 27.3544 155.487 27.2145C155.659 27.0745 155.79 26.8913 155.868 26.6837C155.946 26.476 155.967 26.2514 155.93 26.0329L154.566 18.0891L160.346 12.4641L160.443 12.3579C160.583 12.1864 160.674 11.981 160.708 11.7626C160.742 11.5443 160.718 11.3209 160.637 11.1151C160.557 10.9092 160.423 10.7284 160.25 10.591C160.077 10.4536 159.871 10.3646 159.652 10.3329L151.677 9.17539L148.112 1.95039C148.009 1.74106 147.849 1.56479 147.651 1.44152C147.453 1.31826 147.224 1.25293 146.991 1.25293C146.757 1.25293 146.529 1.31826 146.331 1.44152C146.132 1.56479 145.973 1.74106 145.87 1.95039L142.303 9.17539Z" fill="#F24E1E"/>
</svg>
