<svg version="1.2" xmlns="http://www.w3.org/2000/svg" viewBox="0 0 1050 1000" width="1050" height="1000">
	<title>2461560-ai</title>
	<defs>
		<clipPath clipPathUnits="userSpaceOnUse" id="cp1">
			<path d="m325.97 368.62l0.01-6.09q0 1.25 0.37 2.5c3.69 12.2 81.44 161.74 85.53 169.61l-0.02 6.1c-4.09-7.88-81.84-157.42-85.53-169.62q-0.37-1.25-0.36-2.5z"/>
		</clipPath>
		<clipPath clipPathUnits="userSpaceOnUse" id="cp2">
			<path d="m785.51 608.2l-0.02 6.09c-1.17 0.69-23.37 13.83-43.27 11.86-21.08-2.1-279.5-46.64-293.1-48.99l0.02-6.09c13.6 2.35 272.02 46.89 293.09 48.99 19.91 1.97 42.11-11.17 43.28-11.86z"/>
		</clipPath>
		<clipPath clipPathUnits="userSpaceOnUse" id="cp3">
			<path d="m834.87 692.58l-0.03 13.22c0.02-9.03-5.94-18.08-17.88-24.98-23.72-13.69-62.06-13.69-85.63 0-11.71 6.81-17.57 15.71-17.59 24.63l0.03-13.22c0.03-8.92 5.89-17.82 17.6-24.63 23.57-13.69 61.9-13.69 85.62 0 11.94 6.9 17.91 15.95 17.88 24.98z"/>
		</clipPath>
		<clipPath clipPathUnits="userSpaceOnUse" id="cp4">
			<path d="m843.87 692.58l-0.04 13.22c-0.03 10.24-6.76 20.47-20.2 28.28-27.05 15.72-71.07 15.72-98.31 0-13.7-7.92-20.54-18.3-20.51-28.67l0.03-13.22c-0.03 10.37 6.82 20.76 20.52 28.67 27.24 15.72 71.25 15.72 98.31 0 13.44-7.81 20.17-18.04 20.2-28.28z"/>
		</clipPath>
	</defs>
	<style>
		.s0 { fill: #000000 } 
		.s1 { fill: #ffffff } 
		.s2 { fill: #7ae0fe } 
		.s3 { fill: #a9f3ff } 
		.s4 { fill: #62d5ef } 
		.s5 { fill: #21a7d6 } 
		.s6 { fill: #e8c580 } 
		.s7 { fill: #dcdcdc } 
		.s8 { fill: #767676 } 
		.s9 { fill: #1291f9 } 
		.s10 { fill: #4c4848 } 
		.s11 { fill: #1270af } 
		.s12 { fill: #dddbdb } 
		.s13 { fill: #004f85 } 
		.s14 { fill: #1181ce } 
		.s15 { fill: #075d8c } 
		.s16 { opacity: .4;fill: #767676 } 
		.s17 { opacity: .5;fill: #dddbdb } 
		.s18 { fill: #a9a9a9 } 
		.s19 { opacity: .6;mix-blend-mode: multiply;fill: #dcdcdc } 
		.s20 { fill: #1470f7 } 
		.s21 { fill: #fdfeff } 
		.s22 { fill: #06547f } 
		.s23 { fill: #11707f } 
		.s24 { fill: #06565e } 
		.s25 { fill: #45d3f4 } 
		.s26 { fill: #2690a8 } 
		.s27 { fill: #42b8d3 } 
		.s28 { fill: #0f616d } 
		.s29 { fill: #cafaff } 
		.s30 { fill: #1d2631 } 
		.s31 { fill: #1e2833 } 
		.s32 { fill: #1f2935 } 
		.s33 { fill: #202b37 } 
		.s34 { fill: #212c39 } 
		.s35 { fill: #222e3b } 
		.s36 { fill: #232f3d } 
		.s37 { fill: #24313f } 
		.s38 { fill: #253241 } 
		.s39 { fill: #273443 } 
		.s40 { fill: #283544 } 
		.s41 { fill: #dcebef } 
		.s42 { fill: #dce0e0 } 
		.s43 { fill: #f2f4f4 } 
	</style>
	<g id="OBJECTS">
		<g id="&lt;Group&gt;">
			<g id="&lt;Group&gt;">
				<g id="&lt;Group&gt;">
					<g id="&lt;Group&gt;">
						<g id="&lt;Group&gt;" style="opacity: .1;mix-blend-mode: multiply">
							<g id="&lt;Group&gt;">
								<path id="&lt;Path&gt;" class="s0" d="m539.4 581.7l-173.1 100.6 250.7 144.7 173.1-100.6"/>
							</g>
						</g>
						<g id="&lt;Group&gt;">
							<path id="&lt;Compound Path&gt;" fill-rule="evenodd" class="s1" d="m801.4 718.9l-171.4 99.6-80.3-29.4-45.4-41.3-71.5-26.2-51-46.4 171.4-99.6 51 46.4 71.5 26.2 45.4 41.3zm-126-60.3l-6.9-6.2-32.6-11.9-38.8-14.3-10.5-9.5-3-2.7-32-29.1-156.9 91.2 45.4 41.3 12.9 4.7 35.9 13.2 22.7 8.3 42.5 38.7 2.9 2.6 9.1 3.3 62.4 22.9 47.2-27.4 103.9-60.4 5.8-3.4-71.4-26.2z"/>
							<path id="&lt;Compound Path&gt;" fill-rule="evenodd" class="s2" d="m634.7 643.3l-0.3 0.6-18.7 8.4-3.3 5-2.3 3.2-0.9 7.5 16.9-3.3 4.2 0.6 9.4 1.3 3.5 0.5-131.7 76.5-22.7-8.3c1.9-0.3 3.2-0.5 3.3-0.5 0.5 0.1 10.8 2.8 10.8 2.8l8.4-4.1 2.2-1c0 0 14.8-0.5 14.3-1.4-0.6-0.9-1.7-5.7-1.7-5.7l-4.5-3.8-7-5.3c0 0 2.7-1 3.1-1.7 0.4-0.7 2.4-4.5 2.4-4.5l-4.7-2.9-4-9.3-11.8-5.7-0.9-0.4-3.9 0.4c-0.9-1.5-1.9-3.2-2.8-4.9l19.6-11.4 0.7 1.6 10.7-6.2c0 0 16.6-1.4 18.2-1.2 0.6 0.1 3.6 0.3 7 0.5 5 0.3 10.8 0.7 10.8 0.7l2.8-4.6 13.4 2.2-3.4 5.7 5.1-2.2 5.6-2.5 1.8-8.1 3.1-6.7 0.5-0.9-3.4 0.7-7.2 1.4-1-2.1-0.1-0.3-0.2-0.6c0 0 1-0.6 2.2-1.5 1.7-1.2 3.9-2.8 3.9-3.2q0.1-0.1-0.2-0.6c-0.8-1.7-3.5-5.9-4-6.2q-0.1-0.1-0.1-0.1c-0.2 0.1-3.2 1.3-6.3 2.6-3.3 1.4-6.8 2.8-6.8 2.8l-1.4 3-0.5 1.1-4.7-0.1-2.6 2.4-1.3-2.4 32.4-18.8h0.6l0.2-0.5 9.6-5.6 38.9 14.2zm-181.9 78.9l-12.8-4.7 34.5-20-1.4 2.1-5.8 9 4.3 6.1v0.1l-13.7 5-2.3 0.8zm36.1-29.4l-7.5 0.7 5.6-3.3z"/>
							<path id="&lt;Compound Path&gt;" fill-rule="evenodd" class="s3" d="m583.6 614l-19.9 0.3c0 0-2.2-1.6-4.1-2.7q-0.7-0.4-1.2-0.7-0.6-0.3-1-0.3h-0.1c-0.5 0-2-0.3-3.7-0.7-3-0.7-6.7-1.7-6.7-1.7l-0.2-1.1-1-5.7-10.2-7.2-13.3 7.8 29.4-17.1zm-91 5.2l-0.3 7.4-9.2 6.2-0.1 0.1-1.9 3.5-6.3 11-6.8 8.9 10.1 0.3-6.1 10.7-1 1.9 6 7.9 10.1 13-5.6 3.3-4.6 0.4-2.3 3.6-34.5 20-45.4-41.3zm0 0l29.6-17.2-29.6 17.2zm61.6 32l-0.6-1c0 0 0.7-1.3 0.5-2 0-0.2-0.2-0.6-0.5-1.1-1.2-2.5-4-8-4-8l-3.5-0.6 8.7-6.7 11.1-0.1 6.3-0.1 14.4 0.7zm42.8-24.9l-9.6 5.6 1.9-4.7-9.5 1.2c0 0 1.4-5.3 1.6-6.1 0.1-0.6 2.9-3.3 5.2-5.5zm-85.4 49.7l-19.7 11.4c-1.9-3.3-3.7-6.6-4.4-8.1q-0.3-0.6-0.3-0.8c-0.4-1.7-2.7-7.8-2.1-8.9 0.6-1.1 10.7-6.2 10.7-6.2l13.2 6.5z"/>
							<path id="&lt;Path&gt;" class="s3" d="m668.5 652.4l-25.3 14.7-131.7 76.5 42.6 38.7 2.9 2.6-2.9-2.6 10.5-11.9 6.7-7.7 11.3-12.5-7.6-3.9-8.8-4.6-8.4-4.4 19.1-19 23.4 0.5 14.4 0.3 2.6 2.7 17.3 18 15.3-8.9-7.1-1.4-2.8-3.7-6-7.8-7.9 1.5-4-1.2-10.9-3.2-3.9-5.5 8.8-2.8 11.4 5 8.2-3.3h0.1l9.4-0.2 7.9-0.2 9.1 6.4 15.7 0.1 17.8-10.3-5-0.8-15.7 5.2-11-2 7.1-2.8-6.4-3.9-0.5-0.3c0 0 28.4-5.5 29-5.7 0.4-0.1 10.3 1 17.2 1.7l3.5-2-38.6-35.1-5.5 0.4-11.4 1.1v8.6l-14.4-1.5-0.8-0.1z"/>
							<path id="&lt;Path&gt;" class="s2" d="m706.2 705.9l-10.5-1.6-17.8 10.3 3.1 0.1 11.5 0.1 6.5-1.4-10.4-4.5z"/>
							<path id="&lt;Path&gt;" class="s2" d="m673.7 735.5l-23.8-4.6-15.3 8.9 1 0.9v0.1l0.1 0.1 1.3 1.3 14 5.8 0.9-0.3 7.4-2.6-5.7-6.5-1.1-1.3 7.1-0.4 1.8 0.8 13.9 6.6-1.4-8.1z"/>
							<path id="&lt;Path&gt;" class="s2" d="m578.9 786.9l5.6-0.5 16.5-1.7 39.7-7.7-10.8-12.1 17.2-11.5 1.5 14.5 14.4-5.8 7.8 9.3 7.3 8.7-2.5 3.5-47.2 27.5-62.4-22.9z"/>
							<path id="&lt;Path&gt;" class="s2" d="m785.4 719.9l-71.5-26.2-3.5 2c3.7 0.4 6.6 0.7 6.6 0.7l1.8 1.7 2.2 2 0.5 0.4 3.9 3.5-3.9 7.3-2.6 0.2-7.4 0.4-0.4 4.9h7.4 7.9l18.3 2.7 10.7 1.5 5.2 6.3 7.9-3.8 11.1-0.2z"/>
							<path id="&lt;Path&gt;" class="s4" d="m677.9 714.6l-15.7-0.1-9.1-6.4-7.9 0.2-9.4 0.2h-0.1l-8.2 3.3-11.4-5-8.8 2.8 3.9 5.5 10.9 3.2 4 1.2 7.9-1.5 6 7.8 2.8 3.7 7.1 1.4z"/>
							<path id="&lt;Path&gt;" class="s4" d="m614.7 719.1l-14.4-0.3-23.4-0.5-19.1 19 8.4 4.4 8.8 4.6 7.6 3.9-11.3 12.5-6.7 7.7-10.5 11.9 2.9 2.6 77.6-45.1-17.3-18z"/>
							<path id="&lt;Path&gt;" class="s4" d="m710.4 695.7c-6.9-0.7-16.8-1.8-17.2-1.7-0.6 0.2-29 5.7-29 5.7l0.5 0.3 6.4 3.9-7.1 2.8 11 2 15.7-5.2 5 0.8z"/>
							<path id="&lt;Path&gt;" class="s5" d="m779.6 723.3l-11.1 0.2-7.9 3.8-5.2-6.3-10.7-1.5-18.3-2.7h-7.9-7.4l0.4-4.9 7.4-0.4 2.6-0.2 3.9-7.3-3.9-3.5-0.5-0.4-2.2-2-1.8-1.7c0 0-2.9-0.3-6.6-0.7l-14.7 8.6 10.5 1.6-17.6 3 10.4 4.5-6.5 1.4-11.5-0.1-3.1-0.1-28 16.3 23.8 4.6 0.2 0.7 1.4 8.1-13.9-6.6-1.8-0.8-7.1 0.4 1.1 1.3 5.7 6.5-7.4 2.6-0.9 0.3-14-5.8-1.3-1.3-0.1-0.1v-0.1l-1-0.9-77.6 45.1 9 3.3 12.9-1.3 5.6-0.5 16.5-1.7 39.7-7.7-10.8-12.1 17.2-11.5 1.5 14.5 14.4-5.8 12.6 21.5z"/>
							<path id="&lt;Path&gt;" class="s5" d="m633.2 793.1l-5.9 0.8-5.9-1.2-4.5 2.3-5.1 2-0.7 3.9 12.3-2 5-2.8 0.8 0.9 4.4-3z"/>
							<path id="&lt;Path&gt;" class="s5" d="m668.5 652.4l-32.6-12-1.2 2.9-0.3 0.6-18.7 8.4-3.3 5-2.3 3.2-0.9 7.5 16.9-3.3 4.2 0.6 9.4 1.3 3.5 0.5z"/>
							<path id="&lt;Path&gt;" class="s4" d="m668.5 652.4l-25.3 14.7 0.8 0.1 14.4 1.5v-8.6l11.4-1.1 5.5-0.4z"/>
							<path id="&lt;Path&gt;" class="s5" d="m511.4 697.9l-11.8-5.7-0.9-0.4-3.9 0.4c-0.9-1.5-1.9-3.2-2.8-4.9l-5 2.8 2 2.6-7.6 0.7-6.8 4-1.4 2.1-5.8 9 4.3 6.1v0.1l-13.7 5-2.3 0.8-2.8 1.6 35.9 13.2c1.9-0.3 3.2-0.5 3.3-0.5 0.5 0.1 10.8 2.8 10.8 2.8l8.4-4.1 2.2-1c0 0 14.8-0.5 14.3-1.4-0.6-0.9-1.7-5.7-1.7-5.7l-4.5-3.8-7-5.3c0 0 2.7-1 3.1-1.7 0.4-0.7 2.4-4.5 2.4-4.5l-4.7-2.9z"/>
							<path id="&lt;Path&gt;" class="s5" d="m577.9 641.8q-0.1-0.1-0.1-0.1c-0.2 0.1-3.2 1.3-6.3 2.6-3.3 1.4-6.8 2.8-6.8 2.8l-1.4 3-0.5 1.1-4.7-0.1-2.6 2.4-1.3-2.4-42.6 24.8 0.7 1.6 10.7-6.2c0 0 16.6-1.4 18.2-1.2 0.6 0.1 3.6 0.3 7 0.5 5 0.3 10.8 0.7 10.8 0.7l2.8-4.6 13.4 2.2-3.4 5.7 5.1-2.2 5.6-2.5 1.8-8.1 3.1-6.7 0.5-0.9-3.4 0.7-7.2 1.4-1-2.1-0.1-0.3-0.2-0.6c0 0 1-0.6 2.2-1.5 1.7-1.2 3.9-2.8 3.9-3.2q0.1-0.1-0.2-0.6c-0.8-1.7-3.5-5.9-4-6.2z"/>
							<path id="&lt;Path&gt;" class="s6" d="m587.4 631.8l-0.8 0.5h0.6z"/>
							<path id="&lt;Path&gt;" class="s5" d="m481.4 693.4l-4.5 0.4-2.3 3.6z"/>
							<path id="&lt;Path&gt;" class="s4" d="m583.6 614l-19.9 0.3c0 0-2.2-1.6-4.1-2.7q-0.7-0.4-1.2-0.7-0.6-0.3-1-0.3h-0.1c-0.5 0-2-0.3-3.7-0.7-3-0.7-6.7-1.7-6.7-1.7l-0.2-1.1-1-5.7-10.2-7.2-42.9 25-0.4 7.3-9.1 6.3-0.1 0.1-1.9 3.4-6.3 11.1-6.9 8.9 10.2 0.3-6.1 10.7-1.1 1.9 6.1 7.9 10 13 5-2.8c-1.9-3.3-3.8-6.6-4.5-8.1q-0.2-0.6-0.3-0.8c-0.3-1.7-2.7-7.8-2.1-8.9 0.7-1.1 10.8-6.2 10.8-6.2l13.1 6.5 2.6 6.1 42.6-24.8-0.6-0.9c0 0 0.7-1.3 0.5-2 0-0.2-0.2-0.6-0.5-1.2-1.2-2.4-4-7.9-4-7.9l-3.5-0.7 8.7-6.6 11.2-0.2h6.2l14.4 0.7 0.8-0.5 1.9-4.7-9.5 1.2c0 0 1.4-5.3 1.6-6.1 0.1-0.5 2.9-3.3 5.2-5.5z"/>
						</g>
						<g id="&lt;Group&gt;" style="opacity: .1;mix-blend-mode: multiply">
							<path id="&lt;Path&gt;" class="s0" d="m768.1 627l-193.1-51.6-42.3-24.1 70.6-40.6c18.7-10.7 33.6-24.7 45.3-38.9q1.8-2.1 3.4-4.2 3.3-4.3 6.3-8.5c3.2-4.6 6-9.1 8.6-13.5 18.2 3 31.4 5.1 34.9 5.5 13.9 1.3 29.3-7.8 30.2-8.3v-2.8c-0.2 0.2-1.3 0.8-3.1 1.7 1.8-0.9 2.9-1.5 3.1-1.7l-54.5-14.5c4.8-10.4 6.9-17.2 6.9-17.2v-19.9l-1.2 0.7-7.1 4.1 12-44.4-4.6-2.6-11.3 5.7q-0.2 0.1-0.5 0.3-0.8 0.4-1.5 1-0.1 0.1-0.2 0.1-0.7 0.6-1.3 1.2-0.1 0.1-0.2 0.1 0 0.1-0.1 0.2-0.3 0.3-0.6 0.7-0.1 0.1-0.2 0.2-0.1 0-0.1 0.1-0.2 0.2-0.4 0.4-0.1 0.2-0.3 0.4 0 0-0.1 0.1-0.1 0.2-0.2 0.3-0.1 0.2-0.3 0.4-0.1 0.1-0.2 0.3-0.1 0.1-0.2 0.3 0 0.1-0.1 0.1-0.2 0.4-0.4 0.8 0 0 0 0-0.3 0.5-0.6 1-0.1 0.2-0.2 0.3-0.2 0.4-0.4 0.8-0.1 0.2-0.3 0.4-0.2 0.4-0.4 0.7-0.1 0.3-0.3 0.6-0.2 0.4-0.4 0.7-0.2 0.3-0.3 0.7-0.2 0.3-0.4 0.7-0.2 0.3-0.4 0.7-0.2 0.4-0.4 0.8-0.2 0.3-0.4 0.7-0.2 0.4-0.4 0.8-0.2 0.3-0.4 0.7-0.2 0.3-0.3 0.6-0.1 0.1-0.2 0.3-0.5 1-1.1 2.2-0.1 0.2-0.3 0.4-0.5 1-1.1 2.1-0.1 0.2-0.2 0.5-1.5 2.7-3 5.7-0.7 1.2-1.3 2.4-0.2 0.3-0.3 0.6-0.6 1.1-1.2 2.2-0.1 0.3-0.3 0.7-0.7 1.3-1.4 2.6-0.1 0.2-0.3 0.5-0.6 1.1-1.1 2.2-0.2 0.4-0.5 0.8-0.4 0.9-0.9 1.8-0.2 0.2-0.3 0.5-0.6 1.2-1.2 2.3-0.2 0.4-0.4 0.7-0.4 0.8-0.9 1.6-0.2 0.4-0.4 0.8-0.5 0.8-0.9 1.6-0.2 0.4-0.3 0.7-0.6 1-1.2 2l-31-38.6c-0.2 0.1-1.6 0.9-3.3 2.1-1.4 0.9-3.9 2.7-5.9 5.4-0.8 0.9-1.4 1.9-1.7 3-0.9 2.1-1.3 4.6-0.6 7.4 0.7 3.1 10.5 22.3 20.9 42.5l-139 80.4-40.2-23.2-89.8-111.7c-1 0.6-19.8 11.3-19.7 21.7q0-0.1 0-0.2v5.8q0 1.2 0.3 2.4c1.7 5.5 18.8 39.5 36.9 75-5 2.6-10.8 6.1-17.3 10.9q0 0 0 0-0.1 0.1-0.2 0.2-1.6 1.2-3.3 2.5-0.3 0.3-0.6 0.5-1.7 1.3-3.4 2.7-0.1 0.1-0.2 0.2-1.8 1.5-3.6 3.1-0.4 0.3-0.7 0.7-1.9 1.6-3.7 3.4v0.1c-3.1 1.8-5.1 5.7-5.1 11.2 0 11.2 7.8 24.8 17.5 30.4 4.3 2.5 8.2 3 11.3 1.9 0 0 0.3-0.1 0.8-0.2q0-0.1 0.1-0.1 0.5-0.1 1.5-0.4 0.4-0.1 0.9-0.3 0 0 0 0 0.5-0.2 1.1-0.4 0 0 0.1 0 0.5-0.2 1.1-0.4 0.1 0 0.1 0 0.7-0.2 1.3-0.5 0.1 0 0.1 0 0.7-0.2 1.4-0.5 0.1 0 0.2-0.1 0.7-0.2 1.4-0.5 0.1 0 0.2-0.1 0.8-0.3 1.6-0.6 0 0 0.1 0 0.8-0.3 1.6-0.7 0.1 0 0.3-0.1 0.8-0.3 1.6-0.7 0.1 0 0.3-0.1 0.8-0.4 1.7-0.7 0.1-0.1 0.2-0.1 0.9-0.4 1.8-0.9 0.1 0 0.1 0 0 0 0 0 0.3-0.1 0.6-0.3 0.3-0.1 0.6-0.2 0.1-0.1 0.1-0.1 0.1-0.1 0.2-0.1 1.8-0.9 3.6-1.8 0.3-0.2 0.7-0.4 1.7-0.9 3.5-1.9 0.4-0.2 0.7-0.4 1.8-1.1 3.6-2.2 0.4-0.2 0.7-0.4 0.9-0.6 1.8-1.2c4.4 8.6 8.3 16.2 11.4 22.1l-45.5 26.4-26.7 15.2c-10.1 5.6-15.2 12.4-18.3 19.2q0 0 0 0 0 0 0 0-0.6 1.2-1.1 2.4-0.1 0.2-0.1 0.3-0.5 1.2-0.9 2.3-0.1 0.2-0.2 0.4-0.4 1.1-0.7 2.2-0.2 0.5-0.4 0.9 0 0.3-0.1 0.5c-1 2.9-1.9 5.8-3.1 8.4q0 0 0 0-0.5 1.1-1 2.2c-0.8 1.5-1.7 2.9-2.8 4.2-2.6 3.2-4.4 7.4-5.6 11.7q-1 3.2-1.6 7-0.3 1.8-0.5 3.5-0.1 0.9-0.1 1.7 0 0.1 0 0.1 0 0 0.1 0.1c0 2.7 1 5.3 2.6 7.3q0 0 0 0 0.4 0.5 0.8 1 0.1 0 0.1 0.1 0.4 0.4 0.9 0.8 0.1 0.1 0.2 0.1 0.4 0.4 0.9 0.7 0.1 0.1 0.2 0.2 0.5 0.3 0.9 0.5 0.2 0.1 0.4 0.2 0.4 0.2 0.8 0.4 0.3 0.1 0.6 0.2 0.4 0.1 0.7 0.2 0.4 0.1 0.7 0.2 0.4 0 0.7 0.1 0.4 0.1 0.9 0.1 0.2 0 0.5 0.1 0.7 0 1.4-0.1 0 0 0 0c3.4-0.2 7.4-0.8 12.3-2q1-0.2 2.1-0.5c3.6-1 7.6-2.3 12.1-4q2.7-1 5.6-2.3 2.9-1.2 6-2.7c8.4-3.8 17.9-8.9 28.8-15.5q4.1-2.5 8.4-5.3 2.2-1.3 4.4-2.8 9-5.9 19-13l42.4-24.4q1.3 0.2 3.1 0.5 0.4 0.1 0.8 0.2c3.4 0.6 7.8 1.3 13.1 2.2q1 0.2 2.1 0.4 4.2 0.7 9.2 1.6 0.8 0.1 1.6 0.2c4.7 0.9 9.9 1.7 15.4 2.7q2 0.3 4.1 0.7-1.1 0.8-2.2 1.7-0.3 0.2-0.6 0.4-1.7 1.4-3.4 2.8-0.1 0.1-0.2 0.2-1.8 1.5-3.6 3.1-0.4 0.3-0.7 0.6-1.9 1.7-3.7 3.4v0.1c-3.1 1.9-5.1 5.8-5.1 11.3 0 11.2 7.8 24.8 17.5 30.4 4.3 2.4 8.2 3 11.3 1.8 0 0 0.3 0 0.8-0.2q0 0 0.1 0 0.5-0.2 1.4-0.5 0.5-0.1 1-0.3 0 0 0 0 0.5-0.1 1.1-0.3 0 0 0.1 0 0.5-0.2 1.2-0.4 0 0 0-0.1 0.7-0.2 1.3-0.4 0.1 0 0.1 0 0.7-0.3 1.4-0.6 0.1 0 0.2 0 0.7-0.3 1.4-0.5 0.1-0.1 0.2-0.1 0.8-0.3 1.6-0.6 0-0.1 0.1-0.1 0.8-0.3 1.6-0.6 0.1-0.1 0.2-0.1 0.9-0.4 1.7-0.7 0.1-0.1 0.2-0.1 0.9-0.4 1.8-0.8 0.1 0 0.2-0.1 0.9-0.4 1.8-0.8 0.1 0 0.1 0 0 0 0 0 0.3-0.2 0.6-0.3 0.3-0.1 0.6-0.3 0 0 0.1-0.1 0.1 0 0.2-0.1 1.8-0.8 3.6-1.8 0.3-0.1 0.6-0.3 1.8-0.9 3.6-2 0.4-0.2 0.7-0.4 1.8-1 3.6-2.1 0.4-0.3 0.7-0.5 1.8-1.1 3.6-2.4 0.3-0.2 0.6-0.4 1.9-1.3 3.6-2.7 0.3-0.2 0.6-0.4 1.8-1.5 3.5-3.1 0.2-0.1 0.4-0.3 1.8-1.6 3.4-3.4 0.1-0.1 0.2-0.2 1.8-1.8 3.4-3.8 0.5-0.6 1-1.2 0 0 0 0 0.4-0.6 0.8-1.2 0.1-0.1 0.2-0.3 0.3-0.4 0.6-0.9 0.1-0.2 0.2-0.4 0.3-0.4 0.5-0.9 0.1-0.2 0.2-0.5 0.2-0.4 0.3-0.8 0.1-0.3 0.2-0.6 0.1-0.4 0.2-0.8 0.1-0.4 0.2-0.7 0.1-0.4 0.1-0.8 0.1-0.4 0.1-0.9 0-0.2 0-0.5 0-0.2 0-0.5 0-0.1 0-0.2 0-0.6 0-1.3 1.8 0.3 3.6 0.7 0.5 0 1.1 0.1 2.9 0.5 5.7 1 0.2 0 0.3 0.1 2.4 0.4 4.8 0.8 0.8 0.1 1.6 0.3 2 0.3 3.9 0.6 1.1 0.2 2.3 0.4c10 1.7 20 3.4 29.8 5q0.7 0.1 1.3 0.3 2.4 0.4 4.8 0.8 0.6 0 1.1 0.1 2 0.4 4 0.7 1.5 0.3 2.9 0.5 1.6 0.3 3.2 0.5 0.9 0.2 1.8 0.3 2 0.4 4 0.7 0.7 0.1 1.4 0.2 2 0.4 4 0.7 1 0.2 1.9 0.3 1.7 0.3 3.3 0.6 1.1 0.2 2.2 0.3 1.6 0.3 3.1 0.6 1.1 0.1 2.2 0.3 1.5 0.3 3 0.5 1 0.2 2 0.4 1.7 0.2 3.3 0.5 0.8 0.1 1.6 0.3 1.6 0.2 3.2 0.5 0.9 0.1 1.9 0.3 1.2 0.2 2.5 0.4 1.1 0.2 2.2 0.4 1.5 0.2 3 0.5 0.7 0.1 1.3 0.2 2 0.3 4 0.6 0.2 0.1 0.4 0.1 1.5 0.2 3 0.5 0.8 0.1 1.7 0.2 3.8 0.7 7.2 1.2 0.7 0.1 1.3 0.2 1.1 0.2 2.2 0.4 0.8 0.1 1.5 0.2 0.9 0.1 1.8 0.3 0.7 0.1 1.4 0.2 0.9 0.1 1.7 0.3 0.6 0.1 1.2 0.2 0.9 0.1 1.6 0.2 0.6 0.1 1.2 0.2 0.7 0.1 1.4 0.2 0.6 0.1 1.1 0.1 0.6 0.1 1.2 0.2 0.5 0.1 1 0.2 0.3 0 0.6 0.1 0.2 0 0.5 0 0.4 0.1 0.7 0.1 0.5 0.1 1 0.2 0.3 0 0.6 0 0.5 0.1 0.9 0.2 0.2 0 0.4 0 0.6 0.1 1.1 0.1 0.3 0.1 0.6 0.1 0.3 0 0.5 0 0.7 0.1 1.4 0.1 0.2 0 0.4 0 0.1 0 0.2 0 1.2 0 2.3 0 0.1 0 0.1 0 0.1 0 0.2 0 1.4-0.1 2.8-0.2 0.1 0 0.2 0 0.1 0 0.1 0 1.1-0.1 2.1-0.3 0.3 0 0.5-0.1 0.8-0.1 1.6-0.2 0.2-0.1 0.3-0.1 0.1 0 0.2 0 2.3-0.4 4.5-1 0.1 0 0.2-0.1 2.3-0.6 4.4-1.2 0 0 0.1 0 0-0.1 0-0.1 0.8-0.2 1.7-0.5 0.3-0.1 0.6-0.2 0.5-0.2 1.1-0.4 0.3-0.2 0.6-0.3 0.5-0.2 1-0.4 0.3-0.1 0.6-0.2 0.6-0.2 1-0.4 0.3-0.1 0.6-0.2 0.6-0.3 1.1-0.5 0.2-0.1 0.4-0.1 0.7-0.3 1.3-0.6 0.2-0.1 0.4-0.2 0.5-0.2 0.9-0.5 0.3-0.1 0.5-0.2 0.4-0.1 0.8-0.3 0.2-0.1 0.4-0.2 0.3-0.2 0.7-0.4 0.2-0.1 0.4-0.2 0.4-0.2 0.7-0.4 0.1 0 0.2-0.1 0.5-0.2 0.9-0.4 0.1-0.1 0.1-0.1 0.4-0.2 0.7-0.3 0.1-0.1 0.2-0.2 0.2-0.1 0.4-0.2 0.1-0.1 0.2-0.1 0.2-0.1 0.3-0.2 0.1 0 0.2-0.1 0.1-0.1 0.3-0.1 0 0 0 0 0.1-0.1 0.2-0.2v-5.8z"/>
						</g>
						<g id="&lt;Group&gt;">
							<g id="&lt;Group&gt;">
								<path id="&lt;Path&gt;" class="s7" d="m616.7 335.4c-0.7 0.4-12 6.5-9.4 17.1 0.9 3.9 14.9 31.1 27.6 55.9l26.8-16.9z"/>
							</g>
							<g id="&lt;Group&gt;">
								<path id="&lt;Path&gt;" class="s1" d="m619.4 333.7c-0.7 0.4-13.7 7.7-11.7 14.3 1.2 3.8 15 31.2 27.7 55.9l26.8-16.9z"/>
							</g>
							<g id="&lt;Group&gt;">
								<path id="&lt;Path&gt;" class="s8" d="m414.4 475.4c-14.3 17.7-41.4 24.8-41.4 24.8l-18.5-33.9c22.3-21 39.1-24 39.1-24 3.1-0.8 7.3-1.3 10.8 0.9 7.4 4.6 13.7 14.9 13.6 23.6 0 3.7-1.5 6.1-3.6 8.6q0 0 0 0z"/>
								<path id="&lt;Path&gt;" class="s1" d="m411.1 487.5c-19.2 23.9-55.8 33.6-55.8 33.6l-25-45.8c30.1-28.5 52.8-32.4 52.8-32.4 4.2-1.1 9.9-1.7 14.5 1.1 10 6.3 18.5 20.2 18.4 32 0 4.9-2 8.1-4.9 11.5q0 0 0 0z"/>
								<path id="&lt;Path&gt;" class="s1" d="m416 476q0 0.3 0 0.5c-0.1 4.6-2.1 7.8-4.9 11-19.2 23.9-55.8 33.6-55.8 33.6l-3.9-7.2-12.6-23-7.5-13.9-1-1.7c30.1-28.5 52.8-32.4 52.8-32.4 2.5-0.7 5.6-1.1 8.6-0.8 2.1 0.2 4.1 0.8 5.9 1.9 3.1 2 6.1 4.7 8.8 7.9 5.7 6.9 9.7 16 9.6 24.1z"/>
								<path id="&lt;Path&gt;" class="s9" d="m362.6 462.4c-6.2-3.6-11.9-3.8-15.8-1-5.1 3.8-10.6 8.4-16.5 13.9l25 45.8c0 0 9.4-2.5 21.2-8.1q0.3-0.1 0.6-0.3 0.1 0 0.2 0c3.9-2.2 6.4-6.9 6.4-13.8 0.1-13.4-9.4-29.8-21.1-36.5z"/>
								<path id="&lt;Path&gt;" class="s10" d="m362.6 462.4c-6.2-3.6-11.9-3.8-15.8-1q-0.3 0.2-0.6 0.5c4.2-1.1 8.7-1.2 12.2 0.9 12.9 7.4 22.9 20.8 22.3 40.9-0.2 3.7-2.2 7-4.8 9.6q0.3-0.1 0.6-0.3 0.3-0.1 0.6-0.3 0.1 0 0.2 0c3.9-2.2 6.4-6.9 6.4-13.8 0.1-13.4-9.4-29.8-21.1-36.5z"/>
								<path id="&lt;Path&gt;" class="s11" d="m372.8 471.3l-2.4 1.3c-2.6-3.1-5.7-5.8-9-8q-1.5-1-3-1.8-0.6-0.4-1.3-0.7l2.2-1.3q0.4 0.1 0.8 0.3 0 0 0.1 0 0.4 0.2 0.8 0.4 0.4 0.2 0.8 0.4 0.4 0.2 0.8 0.5 0.3 0.2 0.6 0.4 0.1 0 0.1 0 0.2 0.1 0.4 0.2 0.1 0.1 0.2 0.1 0.5 0.4 1 0.7 0.5 0.4 0.9 0.7 0.3 0.2 0.6 0.4 1 0.8 2 1.7 0.3 0.3 0.5 0.5 0.5 0.5 1 1 1.4 1.4 2.8 3 0.1 0.1 0.1 0.2z"/>
								<g id="&lt;Group&gt;">
									<path id="&lt;Path&gt;" class="s1" d="m343.6 476.6c10.2 5.9 18.4 20.2 18.4 32 0 11.7-8.3 16.4-18.6 10.5-10.2-5.9-18.4-20.2-18.4-31.9 0.1-11.7 8.4-16.5 18.6-10.6z"/>
									<path id="&lt;Path&gt;" class="s12" d="m351.7 519.1c-2.1 0-4.5-0.8-7-2.2-9.4-5.5-17.1-18.8-17.1-29.7 0-6.6 2.9-10.5 7.7-10.5 2.1 0 4.5 0.7 7 2.2 9.5 5.4 17.1 18.8 17.1 29.6 0 6.6-2.9 10.6-7.7 10.6z"/>
									<path id="&lt;Path&gt;" class="s9" d="m342.3 478.9q-0.8-0.5-1.6-0.8-0.9 2.3-0.9 5.7c-0.1 10.9 7.6 24.2 17.1 29.7q0.8 0.4 1.6 0.8 0.9-2.4 0.9-5.8c0-10.8-7.6-24.2-17.1-29.6z"/>
									<path id="&lt;Path&gt;" class="s13" d="m347 482.3c0.5 8.7 5.6 18.6 12.4 24.7-0.6-8.7-5.6-18.5-12.4-24.7z"/>
								</g>
								<path id="&lt;Path&gt;" class="s12" d="m406.4 451.9l-33.6 19.4c-3-3.7-6.5-6.8-10.2-8.9q-1.7-1-3.3-1.6l32.4-18.7c2.1 0.2 4.1 0.8 5.9 1.9 3.1 2 6.1 4.7 8.8 7.9z"/>
								<path id="&lt;Path&gt;" class="s14" d="m372.8 471.3l-21.1 12.2c-2.5-2.8-5.2-5.2-8.1-6.9-2.6-1.5-5.1-2.3-7.4-2.5l23.1-13.3q1.6 0.6 3.3 1.6c3.7 2.1 7.2 5.2 10.2 8.9z"/>
								<path id="&lt;Path&gt;" class="s11" d="m362.6 462.4q-1.7-1-3.3-1.6l-23.1 13.3q2.7 0.2 5.8 1.7l21.9-12.6q-0.7-0.5-1.3-0.8z"/>
								<path id="&lt;Path&gt;" class="s11" d="m372.8 471.3l-2.4 1.3c-2.6-3.1-5.7-5.8-9-8q-1.5-1-3-1.8-0.6-0.4-1.3-0.7l2.2-1.3q0.4 0.1 0.8 0.3 0 0 0.1 0 0.4 0.2 0.8 0.4 0.4 0.2 0.8 0.4 0.4 0.2 0.8 0.5 0.3 0.2 0.6 0.4 0.1 0 0.1 0 0.2 0.1 0.4 0.2 0.1 0.1 0.2 0.1 0.5 0.4 1 0.7 0.5 0.4 0.9 0.7 0.3 0.2 0.6 0.4 1 0.8 2 1.7 0.3 0.3 0.5 0.5 0.5 0.5 1 1 1.4 1.4 2.8 3 0.1 0.1 0.1 0.2z"/>
								<path id="&lt;Path&gt;" class="s11" d="m338.4 474.5q1.7 0.4 3.6 1.3-1.9-0.9-3.6-1.3z"/>
								<path id="&lt;Path&gt;" class="s15" d="m363.9 463.1l-2.5 1.5q-1.5-1-3-1.8-0.6-0.4-1.3-0.7l2.2-1.3q0.4 0.1 0.8 0.3 0 0 0.1 0 0.4 0.2 0.8 0.4 0.4 0.2 0.8 0.4 0.4 0.2 0.8 0.5 0.3 0.2 0.6 0.4 0.1 0 0.1 0 0.2 0.1 0.4 0.2 0.1 0.1 0.2 0.1z"/>
								<path id="&lt;Path&gt;" class="s16" d="m363.9 463.2l33.4-19.3c-1.7-1.1-3.6-1.6-5.6-1.8l-32.4 18.7q1.6 0.6 3.3 1.6 0.7 0.4 1.3 0.8z"/>
								<path id="&lt;Path&gt;" class="s17" d="m416 476.5c-0.1 4.6-2.1 7.8-4.9 11-9.2 11.5-22.5 19.7-33.8 25.2 3.9-2.2 6.4-6.9 6.4-13.8q0-1.7-0.2-3.6z"/>
							</g>
							<g id="&lt;Group&gt;">
								<path id="&lt;Path&gt;" class="s8" d="m573.6 599.7c-14.2 17.7-41.4 24.8-41.4 24.8l-18.4-33.9c22.2-21 39-24 39-24 3.2-0.7 7.4-1.2 10.8 0.9 7.4 4.6 13.7 15 13.6 23.6 0 3.7-1.5 6.1-3.6 8.6q0 0 0 0z"/>
								<path id="&lt;Path&gt;" class="s1" d="m570.4 611.8c-19.3 23.9-55.9 33.6-55.9 33.6l-24.9-45.8c30-28.4 52.7-32.4 52.7-32.4 4.2-1 9.9-1.7 14.5 1.2 10 6.2 18.5 20.1 18.5 31.9-0.1 4.9-2 8.1-4.9 11.5q0 0 0 0z"/>
								<path id="&lt;Path&gt;" class="s1" d="m575.3 600.3q0 0.3 0 0.5c-0.2 4.6-2.2 7.8-4.9 11-19.3 23.9-55.9 33.6-55.9 33.6l-3.9-7.2-12.5-23-7.6-13.9-0.9-1.7c30-28.4 52.7-32.4 52.7-32.4 2.6-0.6 5.6-1.1 8.7-0.8 2 0.2 4 0.8 5.8 2 3.2 1.9 6.2 4.6 8.8 7.8 5.7 6.9 9.7 16 9.7 24.1z"/>
								<path id="&lt;Path&gt;" class="s9" d="m521.9 586.7c-6.3-3.6-11.9-3.7-15.8-1-5.2 3.8-10.7 8.4-16.5 13.9l24.9 45.8c0 0 9.4-2.5 21.2-8q0.3-0.2 0.6-0.3 0.1-0.1 0.2-0.1c4-2.2 6.4-6.9 6.5-13.8 0-13.4-9.5-29.7-21.1-36.5z"/>
								<path id="&lt;Path&gt;" class="s10" d="m521.9 586.7c-6.3-3.6-11.9-3.7-15.8-1q-0.4 0.2-0.7 0.5c4.2-1 8.7-1.1 12.3 0.9 12.8 7.4 22.9 20.8 22.2 41-0.1 3.6-2.2 6.9-4.8 9.5q0.3-0.1 0.6-0.2 0.3-0.2 0.6-0.3 0.1-0.1 0.2-0.1c4-2.2 6.4-6.9 6.5-13.8 0-13.4-9.5-29.7-21.1-36.5z"/>
								<path id="&lt;Path&gt;" class="s11" d="m532 595.6l-2.3 1.4c-2.7-3.2-5.8-5.8-9.1-8.1q-1.5-1-2.9-1.8-0.7-0.4-1.4-0.7l2.3-1.3q0.4 0.2 0.7 0.3 0.1 0 0.1 0 0.4 0.2 0.8 0.4 0.4 0.2 0.8 0.4 0.4 0.3 0.9 0.5 0.3 0.2 0.6 0.4 0 0 0 0 0.2 0.1 0.4 0.2 0.1 0.1 0.2 0.2 0.5 0.3 1 0.6 0.5 0.4 1 0.7 0.2 0.2 0.5 0.4 1 0.8 2 1.8 0.3 0.2 0.5 0.4 0.5 0.5 1 1 1.5 1.4 2.8 3 0.1 0.1 0.1 0.2z"/>
								<g id="&lt;Group&gt;">
									<path id="&lt;Path&gt;" class="s1" d="m502.8 600.9c10.2 5.9 18.5 20.2 18.4 32 0 11.7-8.3 16.4-18.5 10.5-10.2-5.9-18.5-20.1-18.4-31.9 0-11.7 8.3-16.4 18.5-10.6z"/>
									<path id="&lt;Path&gt;" class="s12" d="m511 643.4c-2.1 0-4.5-0.8-7-2.2-9.5-5.5-17.2-18.8-17.2-29.7 0.1-6.6 2.9-10.5 7.7-10.5 2.1 0 4.5 0.8 7 2.2 9.5 5.5 17.2 18.8 17.2 29.7-0.1 6.6-2.9 10.5-7.7 10.5z"/>
									<path id="&lt;Path&gt;" class="s9" d="m501.5 603.2q-0.8-0.5-1.5-0.8-1 2.3-1 5.7c0 10.9 7.6 24.2 17.1 29.7q0.8 0.4 1.6 0.8 0.9-2.4 1-5.7c0-10.9-7.7-24.2-17.2-29.7z"/>
									<path id="&lt;Path&gt;" class="s13" d="m506.2 606.6c0.5 8.7 5.6 18.6 12.4 24.7-0.5-8.7-5.6-18.5-12.4-24.7z"/>
								</g>
								<path id="&lt;Path&gt;" class="s12" d="m565.6 576.2l-33.6 19.4c-3-3.7-6.4-6.8-10.1-8.9q-1.7-1-3.3-1.6l32.4-18.7c2 0.2 4 0.8 5.8 2 3.2 1.9 6.2 4.6 8.8 7.8z"/>
								<path id="&lt;Path&gt;" class="s14" d="m532 595.6l-21.1 12.2c-2.4-2.8-5.2-5.2-8.1-6.9-2.6-1.5-5.1-2.3-7.3-2.4l23.1-13.4q1.6 0.6 3.3 1.6c3.7 2.1 7.1 5.2 10.1 8.9z"/>
								<path id="&lt;Path&gt;" class="s11" d="m521.9 586.7q-1.7-1-3.3-1.6l-23.1 13.4q2.7 0.2 5.7 1.6l21.9-12.6q-0.6-0.4-1.2-0.8z"/>
								<path id="&lt;Path&gt;" class="s11" d="m532 595.6l-2.3 1.4c-2.7-3.2-5.8-5.8-9.1-8.1q-1.5-1-2.9-1.8-0.7-0.4-1.4-0.7l2.3-1.3q0.4 0.2 0.7 0.3 0.1 0 0.1 0 0.4 0.2 0.8 0.4 0.4 0.2 0.8 0.4 0.4 0.3 0.9 0.5 0.3 0.2 0.6 0.4 0 0 0 0 0.2 0.1 0.4 0.2 0.1 0.1 0.2 0.2 0.5 0.3 1 0.6 0.5 0.4 1 0.7 0.2 0.2 0.5 0.4 1 0.8 2 1.8 0.3 0.2 0.5 0.4 0.5 0.5 1 1 1.5 1.4 2.8 3 0.1 0.1 0.1 0.2z"/>
								<path id="&lt;Path&gt;" class="s11" d="m497.6 598.8q1.8 0.4 3.6 1.3-1.8-0.9-3.6-1.3z"/>
								<path id="&lt;Path&gt;" class="s15" d="m523.1 587.5l-2.5 1.4q-1.5-1-2.9-1.8-0.7-0.4-1.4-0.7l2.3-1.3q0.4 0.2 0.7 0.3 0.1 0 0.1 0 0.4 0.2 0.8 0.4 0.4 0.2 0.8 0.4 0.4 0.3 0.9 0.5 0.3 0.2 0.6 0.4 0 0 0 0 0.2 0.1 0.4 0.2 0.1 0.1 0.2 0.2z"/>
								<path id="&lt;Path&gt;" class="s16" d="m523.1 587.5l33.5-19.3c-1.8-1-3.7-1.6-5.6-1.8l-32.4 18.7q1.6 0.6 3.3 1.6 0.6 0.4 1.2 0.8z"/>
								<path id="&lt;Path&gt;" class="s17" d="m575.3 600.8c-0.2 4.6-2.2 7.8-4.9 11-9.3 11.5-22.6 19.8-33.9 25.2 4-2.2 6.4-6.9 6.5-13.8q0-1.7-0.3-3.6z"/>
							</g>
							<g id="&lt;Group&gt;">
								<g id="&lt;Group&gt;">
									<g id="&lt;Group&gt;">
										<path id="&lt;Path&gt;" class="s1" d="m346.7 339.9l94.2 117.3 49 28.3-78 49.1c-4.1-7.8-81.9-157.4-85.6-169.6-3.4-11.5 19.2-24.4 20.4-25.1z"/>
									</g>
									<g id="&lt;Group&gt;">
										<path id="&lt;Path&gt;" class="s18" d="m489.9 485.5l-0.1 6.1-77.9 49.1v-6.1z"/>
									</g>
									<g id="&lt;Clip Group&gt;" clip-path="url(#cp1)">
										<g id="&lt;Group&gt;">
											<path id="&lt;Path&gt;" class="s7" d="m411.9 534.6v6.1c-4.1-7.8-81.9-157.4-85.6-169.6q-0.3-1.2-0.3-2.5v-6.1q0 1.3 0.3 2.5c3.7 12.2 81.5 161.8 85.6 169.6z"/>
										</g>
									</g>
								</g>
							</g>
							<path id="&lt;Path&gt;" class="s1" d="m408.3 603.4l204.1-117.4c62.8-35.9 85.2-107.6 85.2-107.6v-20.9l-340.7 197.3-27.9 15.9c-24.5 13.6-20.6 33.6-30.2 45.3-5 6-7.2 15.6-8.1 23.2-1 8.3 5.7 15.3 14 14.8 16.1-1 47.4-10.4 103.6-50.6z"/>
							<path id="&lt;Path&gt;" class="s7" d="m696.3 358.3v12.8c0 0-22.4 71.8-85.2 107.6l-204.1 117.4c-56.2 40.2-87.5 49.6-103.6 50.6-5.6 0.4-10.4-2.7-12.7-7.2-0.9 8.1 5.8 15 14 14.5 16.1-1 47.4-10.4 103.6-50.6l204.1-117.4c62.8-35.9 85.2-107.6 85.2-107.6v-20.9z"/>
							<g id="&lt;Group&gt;">
								<g id="&lt;Group&gt;">
									<g id="&lt;Group&gt;">
										<path id="&lt;Path&gt;" class="s1" d="m785.5 608.2c-1.2 0.7-23.4 13.8-43.3 11.9-21-2.1-279.5-46.7-293.1-49l82-46.4 51.6 29.3z"/>
									</g>
									<g id="&lt;Clip Group&gt;" clip-path="url(#cp2)">
										<path id="&lt;Path&gt;" class="s7" d="m766.1 616.8c-3.1 1-6.4 1.9-9.9 2.5q-2.3 0.5-4.8 0.7-1.7 0.2-3.4 0.2-1.3 0.1-2.7 0-1.2 0-2.4-0.1-0.3 0-0.7 0c-1.1-0.2-2.9-0.4-5.4-0.7-43-6.1-274.8-46.1-287.7-48.3v6.1c12.9 2.2 244.7 42.1 287.7 48.2 2.4 0.4 4.3 0.6 5.4 0.7q0.4 0.1 0.7 0.1 1.2 0.1 2.4 0.1 1.4 0.1 2.7 0 1.7 0 3.4-0.2 2.4-0.3 4.8-0.7c3.4-0.6 6.7-1.5 9.8-2.5 10.7-3.4 18.8-8.2 19.5-8.6v-6.1c-0.7 0.4-8.8 5.2-19.4 8.6z"/>
									</g>
								</g>
							</g>
							<path id="&lt;Path&gt;" class="s19" d="m697.6 358.8v19.4l-356.7 205.1c0 0-17.6 6.2-19.4 16.9-1.3 8.1-25.7 29.3-30.5 43.6q-0.3-1.3-0.4-2.7c0.7-9.3 2.7-16.9 7.2-22.1 12.6-14.3 6.8-32.5 31.3-46l28-16z"/>
							<g id="&lt;Group&gt;">
								<g id="&lt;Group&gt;">
									<path id="&lt;Path&gt;" class="s1" d="m649.2 409.8c33.6 5.6 61.2 10.1 66.7 10.7 14.6 1.4 30.8-8.2 31.7-8.7l-69.7-18.6z"/>
								</g>
								<g id="&lt;Group&gt;">
									<path id="&lt;Path&gt;" class="s1" d="m732.3 418.4c-2 0.6-4 1.1-6.1 1.5z"/>
								</g>
								<path id="&lt;Path&gt;" class="s7" d="m726.2 419.9l-8.2 2-68.8-9.2 3.8-2.3c31.9 5.3 57.6 9.5 62.9 10 3.4 0.4 6.9 0.1 10.3-0.5z"/>
								<path id="&lt;Path&gt;" class="s7" d="m732.3 418.4h0.1c-5.1 1.5-10.9 2.6-16.5 2-5.3-0.5-30.9-4.7-62.8-10l-3.9 2.3c33.6 5.6 61.2 10.1 66.7 10.7 14.6 1.4 30.8-8.2 31.6-8.7v-2.9c-0.5 0.3-6.9 4.1-15.2 6.6z"/>
							</g>
							<g id="&lt;Group&gt;">
								<path id="&lt;Path&gt;" class="s9" d="m366.3 604.8c0 1 0.7 1.4 1.7 0.9l2.9-1.8c0.9-0.5 1.7-1.8 1.7-2.8v-2.1l-6.3 3.7z"/>
								<path id="&lt;Path&gt;" class="s13" d="m370.9 595.5l-3 1.7c-0.9 0.6-1.6 1.8-1.6 2.9v2.6l6.3-3.7v-2.6c0-1-0.8-1.5-1.7-0.9z"/>
								<path id="&lt;Path&gt;" class="s9" d="m378.3 597.7c0 1.1 0.8 1.5 1.7 0.9l3-1.7c0.9-0.5 1.6-1.8 1.6-2.9v-2l-6.3 3.7z"/>
								<path id="&lt;Path&gt;" class="s13" d="m382.9 588.4l-2.9 1.8c-0.9 0.5-1.7 1.8-1.7 2.8v2.7l6.3-3.7v-2.6c0-1.1-0.7-1.5-1.7-1z"/>
								<path id="&lt;Path&gt;" class="s9" d="m390.4 590.6c0 1.1 0.7 1.5 1.6 1l3-1.8c0.9-0.5 1.7-1.8 1.7-2.8v-2.1l-6.3 3.7z"/>
								<path id="&lt;Path&gt;" class="s13" d="m395 581.4l-3 1.7c-0.9 0.6-1.6 1.8-1.6 2.9v2.6l6.3-3.7v-2.6c0-1-0.8-1.5-1.7-0.9z"/>
								<path id="&lt;Path&gt;" class="s13" d="m407 574.3l-2.9 1.8c-1 0.5-1.7 1.8-1.7 2.8v2.6l6.3-3.7v-2.5c0-1.1-0.7-1.5-1.7-1z"/>
								<path id="&lt;Path&gt;" class="s9" d="m402.4 583.6c0 1 0.8 1.5 1.7 0.9l3-1.7c0.9-0.6 1.6-1.8 1.6-2.9v-2.1l-6.3 3.7z"/>
								<path id="&lt;Path&gt;" class="s9" d="m414.5 576.5c0 1.1 0.7 1.5 1.6 1l3-1.8c0.9-0.5 1.7-1.8 1.7-2.8l-0.1-2.1-6.2 3.7z"/>
								<path id="&lt;Path&gt;" class="s13" d="m419.1 567.3l-3 1.7c-0.9 0.6-1.7 1.8-1.6 2.9v2.6l6.2-3.7v-2.6c0-1-0.7-1.5-1.6-0.9z"/>
								<path id="&lt;Path&gt;" class="s9" d="m426.5 569.5c0 1 0.8 1.5 1.7 0.9l2.9-1.7c1-0.6 1.7-1.8 1.7-2.9v-2.1l-6.3 3.7z"/>
								<path id="&lt;Path&gt;" class="s13" d="m431.1 560.2l-3 1.8c-0.9 0.5-1.6 1.8-1.6 2.8v2.6l6.3-3.7v-2.5c0-1.1-0.8-1.5-1.7-1z"/>
								<path id="&lt;Path&gt;" class="s9" d="m438.6 562.4c0 1.1 0.7 1.5 1.6 1l3-1.8c0.9-0.5 1.6-1.8 1.6-2.8v-2.2l-6.3 3.7z"/>
								<path id="&lt;Path&gt;" class="s13" d="m443.2 553.2l-3 1.7c-0.9 0.5-1.7 1.8-1.7 2.9v2.5l6.3-3.7v-2.5c0-1-0.7-1.5-1.6-0.9z"/>
								<path id="&lt;Path&gt;" class="s13" d="m455.2 546.1l-3 1.8c-0.9 0.5-1.6 1.8-1.6 2.8v2.6l6.3-3.7v-2.5c0-1.1-0.8-1.5-1.7-1z"/>
								<path id="&lt;Path&gt;" class="s9" d="m450.6 555.4c0 1 0.7 1.5 1.7 0.9l2.9-1.7c0.9-0.6 1.7-1.8 1.7-2.9v-2.1l-6.3 3.7z"/>
								<path id="&lt;Path&gt;" class="s9" d="m462.6 548.3c0 1.1 0.8 1.5 1.7 1l3-1.8c0.9-0.5 1.6-1.8 1.6-2.9v-2.1l-6.3 3.7z"/>
								<path id="&lt;Path&gt;" class="s13" d="m467.2 539.1l-2.9 1.7c-0.9 0.5-1.7 1.8-1.7 2.9v2.5l6.3-3.7v-2.5c0-1.1-0.7-1.5-1.7-0.9z"/>
								<path id="&lt;Path&gt;" class="s9" d="m474.7 541.3c0 1 0.7 1.5 1.6 0.9l3-1.7c0.9-0.6 1.7-1.9 1.7-2.9v-2.2l-6.3 3.7z"/>
								<path id="&lt;Path&gt;" class="s13" d="m479.3 532l-3 1.8c-0.9 0.5-1.6 1.8-1.6 2.8v2.5l6.3-3.7v-2.5c0-1-0.8-1.4-1.7-0.9z"/>
								<path id="&lt;Path&gt;" class="s9" d="m486.7 534.2c0 1.1 0.8 1.5 1.7 1l3-1.8c0.9-0.5 1.6-1.8 1.6-2.9v-2.1l-6.3 3.7z"/>
								<path id="&lt;Path&gt;" class="s13" d="m491.3 525l-2.9 1.7c-0.9 0.5-1.7 1.8-1.7 2.9v2.5l6.3-3.7v-2.5c0-1.1-0.7-1.5-1.7-0.9z"/>
								<path id="&lt;Path&gt;" class="s9" d="m498.8 527.2c0 1 0.7 1.4 1.6 0.9l3-1.7c0.9-0.6 1.7-1.9 1.7-2.9v-2.2l-6.3 3.7z"/>
								<path id="&lt;Path&gt;" class="s13" d="m503.4 517.9l-3 1.7c-0.9 0.6-1.6 1.9-1.6 2.9v2.5l6.3-3.7v-2.5c-0.1-1-0.8-1.4-1.7-0.9z"/>
								<path id="&lt;Path&gt;" class="s13" d="m515.4 510.9l-2.9 1.7c-1 0.5-1.7 1.8-1.7 2.9v2.4l6.3-3.7v-2.4c0-1.1-0.8-1.5-1.7-0.9z"/>
								<path id="&lt;Path&gt;" class="s9" d="m510.8 520.1c0 1.1 0.8 1.5 1.7 1l2.9-1.8c1-0.5 1.7-1.8 1.7-2.9v-2.2l-6.3 3.7z"/>
								<path id="&lt;Path&gt;" class="s13" d="m527.5 503.8l-3 1.7c-0.9 0.6-1.7 1.9-1.7 2.9l0.1 2.5 6.2-3.7v-2.5c0-1-0.7-1.4-1.6-0.9z"/>
								<path id="&lt;Path&gt;" class="s9" d="m522.9 513.1c0 1 0.7 1.4 1.6 0.9l3-1.7c0.9-0.6 1.6-1.9 1.6-2.9v-2.2l-6.2 3.7z"/>
								<path id="&lt;Path&gt;" class="s9" d="m534.9 506c0 1.1 0.8 1.5 1.7 1l2.9-1.8c1-0.5 1.7-1.8 1.7-2.9v-2.2l-6.3 3.7z"/>
								<path id="&lt;Path&gt;" class="s13" d="m539.5 496.8l-3 1.7c-0.9 0.5-1.6 1.8-1.6 2.9v2.4l6.3-3.7v-2.4c0-1.1-0.8-1.5-1.7-0.9z"/>
								<path id="&lt;Path&gt;" class="s9" d="m546.9 499c0 1 0.8 1.4 1.7 0.9l3-1.7c0.9-0.6 1.6-1.9 1.6-2.9v-2.3l-6.3 3.7z"/>
								<path id="&lt;Path&gt;" class="s13" d="m551.6 489.7l-3 1.7c-0.9 0.6-1.7 1.9-1.7 2.9v2.4l6.3-3.7v-2.4c0-1-0.7-1.4-1.6-0.9z"/>
								<path id="&lt;Path&gt;" class="s9" d="m559 491.9c0 1.1 0.7 1.5 1.7 0.9l2.9-1.7c0.9-0.5 1.7-1.8 1.7-2.9v-2.2l-6.3 3.7z"/>
								<path id="&lt;Path&gt;" class="s13" d="m563.6 482.6l-3 1.8c-0.9 0.5-1.6 1.8-1.6 2.9v2.4l6.3-3.7v-2.4c0-1.1-0.8-1.5-1.7-1z"/>
								<path id="&lt;Path&gt;" class="s9" d="m571 484.9c0 1 0.8 1.4 1.7 0.9l3-1.7c0.9-0.6 1.6-1.9 1.6-2.9v-2.3l-6.3 3.7z"/>
								<path id="&lt;Path&gt;" class="s13" d="m575.6 475.6l-2.9 1.7c-0.9 0.6-1.7 1.9-1.7 2.9v2.4l6.3-3.7v-2.4c0-1-0.7-1.4-1.7-0.9z"/>
								<path id="&lt;Path&gt;" class="s9" d="m583.1 477.8c0 1.1 0.7 1.5 1.6 0.9l3-1.7c0.9-0.5 1.7-1.8 1.7-2.9v-2.3l-6.3 3.7z"/>
								<path id="&lt;Path&gt;" class="s13" d="m587.7 468.5l-3 1.8c-0.9 0.5-1.6 1.8-1.6 2.9v2.3l6.3-3.7v-2.3c0-1.1-0.8-1.5-1.7-1z"/>
								<path id="&lt;Path&gt;" class="s13" d="m599.7 461.5l-2.9 1.7c-0.9 0.6-1.7 1.9-1.7 2.9v2.4l6.3-3.7v-2.4c0-1-0.7-1.4-1.7-0.9z"/>
								<path id="&lt;Path&gt;" class="s9" d="m595.1 470.8c0 1 0.8 1.4 1.7 0.9l3-1.7c0.9-0.6 1.6-1.9 1.6-2.9v-2.3l-6.3 3.7z"/>
								<path id="&lt;Path&gt;" class="s9" d="m607.2 463.7c0 1.1 0.7 1.5 1.6 0.9l3-1.7c0.9-0.5 1.7-1.8 1.7-2.9l-0.1-2.3-6.2 3.7z"/>
								<path id="&lt;Path&gt;" class="s13" d="m611.8 454.4l-3 1.8c-0.9 0.5-1.6 1.8-1.6 2.9v2.3l6.2-3.7v-2.3c0-1.1-0.7-1.5-1.6-1z"/>
								<path id="&lt;Path&gt;" class="s9" d="m619.2 456.7c0 1 0.8 1.4 1.7 0.9l2.9-1.8c1-0.5 1.7-1.8 1.7-2.8v-2.4l-6.3 3.7z"/>
								<path id="&lt;Path&gt;" class="s13" d="m623.8 447.4l-2.9 1.7c-1 0.6-1.7 1.9-1.7 2.9v2.3l6.3-3.7v-2.3c0-1-0.8-1.4-1.7-0.9z"/>
								<path id="&lt;Path&gt;" class="s9" d="m631.2 447.3l0.1 2.3c0 1.1 0.7 1.5 1.6 0.9l3-1.7c0.9-0.5 1.6-1.8 1.6-2.9v-2.3z"/>
								<path id="&lt;Path&gt;" class="s13" d="m637.5 441.3c0-1.1-0.7-1.5-1.6-1l-3 1.8c-0.9 0.5-1.7 1.8-1.7 2.9v2.3l6.3-3.7z"/>
							</g>
							<path id="&lt;Path&gt;" class="s13" d="m301.7 611.5c0.1 3.2 1.5 6.1 6 6.4 10.1 0.7 27.1 1.7 39.5-3.1q0.1 0 0.1 0c2.2-0.9 3.9-2.7 4.7-4.9l3.5-8.7c-14 4.6-31.8 3.8-41 3.2-8.4-0.6-5.9-10.4-4.9-13.5-3.4 7.3-4.8 14.7-7.9 20.6z"/>
							<g id="&lt;Group&gt;">
								<g id="&lt;Group&gt;">
									<g id="&lt;Group&gt;">
										<path id="&lt;Path&gt;" class="s9" d="m689 322.3q0.3-0.2 0.6-0.3l11.9-6-18 66.9-49.8 28.7c3.5-4.4 10.1-12.6 17.4-24.7 9-15 25.1-47.1 31.2-57.5 1.8-3.1 4.2-5.6 6.7-7.1z"/>
									</g>
									<path id="&lt;Path&gt;" class="s14" d="m696.7 313.2l-11.9 6q-0.3 0.2-0.6 0.3-0.8 0.5-1.5 1.1-0.1 0-0.2 0.1-0.7 0.6-1.4 1.3-0.1 0-0.2 0.1 0 0-0.1 0.1-0.4 0.4-0.7 0.7-0.1 0.2-0.2 0.3 0 0-0.1 0.1-0.2 0.2-0.3 0.4-0.2 0.2-0.4 0.4 0 0.1-0.1 0.2-0.1 0.1-0.2 0.3-0.2 0.2-0.3 0.4-0.1 0.1-0.2 0.3-0.1 0.1-0.2 0.3-0.1 0.1-0.1 0.2-0.3 0.4-0.5 0.8 0 0 0 0-0.3 0.4-0.6 1-0.1 0.2-0.2 0.4-0.2 0.3-0.4 0.7-0.2 0.3-0.3 0.5-0.2 0.4-0.4 0.8-0.2 0.3-0.4 0.6-0.2 0.3-0.4 0.7-0.2 0.3-0.3 0.7-0.2 0.4-0.5 0.7-0.1 0.4-0.3 0.7-0.3 0.5-0.5 0.9-0.2 0.4-0.4 0.7-0.2 0.5-0.4 0.9-0.2 0.4-0.4 0.7-0.2 0.4-0.4 0.7-0.1 0.1-0.1 0.2-0.6 1.2-1.3 2.4-0.1 0.2-0.2 0.4-0.6 1.1-1.2 2.2-0.1 0.3-0.2 0.5-1.5 2.9-3.2 6-0.6 1.3-1.3 2.6-0.2 0.3-0.3 0.6-0.6 1.1-1.2 2.3-0.2 0.3-0.4 0.7-0.7 1.4-1.5 2.7-0.1 0.3-0.3 0.6-0.6 1.1-1.2 2.3-0.2 0.4-0.4 0.8-0.5 0.9-1 1.9-0.2 0.3-0.3 0.6-0.7 1.2-1.3 2.4-0.2 0.3-0.4 0.7-0.5 0.9-0.9 1.7-0.3 0.4-0.5 0.9-0.5 0.8-0.9 1.7-0.2 0.3-0.4 0.6-0.6 1.1-1.2 2.2-0.2 0.3-0.3 0.6-0.5 0.8-0.9 1.6-0.2 0.4-0.4 0.7-0.5 0.8-0.9 1.6-0.1 0.2-0.3 0.5-0.6 1-1.1 1.9-0.3 0.6-0.6 1.1-0.2 0.2-0.3 0.4-0.4 0.8-0.8 1.4-0.7 1.2-1.4 2.3-0.3 0.4-0.5 0.8-0.5 0.7-0.9 1.4-0.3 0.5-0.6 1-0.4 0.5-0.7 1.1-0.3 0.4-0.6 0.9-0.4 0.5-0.7 1-0.3 0.5-0.6 0.9-0.4 0.5-0.7 1-0.3 0.4-0.6 0.9-0.3 0.4-0.6 0.9-0.2 0.3-0.4 0.5-0.6 0.9-1.2 1.7-0.2 0.3-0.4 0.5-0.7 1-1.4 1.9 0 0.1-0.1 0.2-0.6 0.8-1.2 1.6-0.2 0.2-0.3 0.4-0.6 0.8-1.1 1.4-0.1 0.1-0.2 0.2-0.3 0.4-0.5 0.8-0.2 0.2-0.4 0.4-0.2 0.3-0.5 0.7-0.2 0.2-0.3 0.4-0.3 0.3-0.5 0.6-0.2 0.2-0.3 0.3-0.4 0.5-0.7 0.9l4.8 2.8q0.3-0.4 0.7-0.9 0.1-0.1 0.3-0.3 0.2-0.3 0.5-0.7 0.1-0.1 0.3-0.3 0.2-0.4 0.5-0.7 0.2-0.2 0.4-0.4 0.2-0.4 0.5-0.8 0 0 0.1 0 0-0.1 0.1-0.2 0.5-0.7 1-1.4 0.2-0.2 0.4-0.4 0.6-0.8 1.2-1.6 0.1-0.1 0.1-0.2 0.7-0.9 1.4-1.9 0.2-0.3 0.4-0.5 0.6-0.8 1.2-1.7 0.1-0.2 0.2-0.3 0.1-0.1 0.2-0.2 0.3-0.5 0.6-0.9 0.3-0.5 0.6-0.9 0.3-0.5 0.7-1 0.3-0.4 0.6-0.9 0.3-0.5 0.7-1 0.3-0.5 0.6-0.9 0.3-0.6 0.7-1.2 0.2-0.4 0.5-0.8 0 0 0.1-0.1 0.4-0.7 0.9-1.4 0.2-0.4 0.5-0.8 0.7-1.1 1.4-2.3 0.4-0.7 0.8-1.4 0.1-0.2 0.3-0.4 0.2-0.5 0.5-1 0.1 0 0.1-0.1 0.5-0.9 1.1-1.9 0.1-0.3 0.3-0.5 0.4-0.8 0.9-1.6 0.2-0.3 0.4-0.7 0.4-0.8 0.9-1.6 0.1-0.3 0.3-0.6 0.6-1.1 1.2-2.2 0.2-0.3 0.3-0.6 0.5-0.9 1-1.8 0.2-0.4 0.4-0.8 0.5-0.9 1-1.8 0.2-0.3 0.4-0.6 0.6-1.2 1.3-2.5 0.1-0.2 0.2-0.4 0.5-1 1.1-2 0.1-0.2 0.2-0.4 0.1-0.2 0.2-0.4 0.6-1.2 1.3-2.4 0.1-0.2 0.2-0.4 0.7-1.4 1.4-2.8 0.3-0.4 0.5-0.8 0.6-1.1 1.1-2.2 0.2-0.3 0.4-0.6 0.7-1.3 1.3-2.6 1.6-3.1 3.2-6 0.1-0.2 0.2-0.5 0.6-1.1 1.2-2.2 0.1-0.2 0.2-0.4 0.7-1.2 1.3-2.4 0.2-0.5 0.5-0.9 0.2-0.4 0.3-0.7 0.3-0.5 0.5-0.9 0.2-0.4 0.4-0.7 0.2-0.5 0.5-0.9 0.2-0.3 0.3-0.6 0.3-0.5 0.5-0.9 0.2-0.3 0.3-0.6 0.2-0.4 0.4-0.8 0.2-0.3 0.4-0.6 0.2-0.3 0.4-0.7 0.1-0.3 0.2-0.5 0.3-0.4 0.5-0.8 0.1-0.1 0.2-0.3 0.3-0.6 0.6-1 0.3-0.6 0.6-1 0.1-0.2 0.2-0.3 0.2-0.4 0.5-0.7 0.1-0.2 0.2-0.3 0.2-0.3 0.5-0.6 0.1-0.2 0.3-0.4 0.2-0.2 0.3-0.4 0.3-0.3 0.7-0.7 0.1-0.1 0.3-0.3 0.7-0.6 1.4-1.2 0.1-0.1 0.2-0.1 0.7-0.6 1.5-1.1 0.3-0.2 0.6-0.3l11.9-6z"/>
								</g>
							</g>
						</g>
						<g id="&lt;Group&gt;">
							<g id="&lt;Group&gt;">
								<path id="&lt;Path&gt;" class="s13" d="m666.7 720.7l-3.3 3.9-4.6 2.6 4.5-5.2c0.8-1 2-1.4 3.4-1.3z"/>
							</g>
							<path id="&lt;Path&gt;" class="s20" d="m659 664.3q-0.3-0.2-0.6-0.4c-12.5-6.8-22.7-0.8-22.8 13.5 0 11.4 6.2 24.9 15 33.8 1.5 1.6 2.8 3.6 3.7 5.7l4.5 10.3 4.5-5.2c0.9-1.1 2.3-1.5 3.9-1.3 8.7 1.2 14.9-4.9 14.9-16.3 0.1-14.8-10.3-32.7-23.1-40.1z"/>
							<path id="&lt;Path&gt;" class="s1" d="m658.9 679.4c-5.2-3-9.5-0.6-9.5 5.4 0 6 4.2 13.4 9.5 16.4 5.2 3 9.5 0.6 9.5-5.4 0-6.1-4.2-13.4-9.5-16.4z"/>
							<path id="&lt;Path&gt;" class="s13" d="m686.7 700.7q0-0.1 0-0.2 0-0.2 0-0.4 0-0.3-0.1-0.5 0-0.2 0-0.4 0-0.3 0-0.5 0-0.1-0.1-0.3 0-0.3 0-0.6 0-0.2-0.1-0.4 0-0.1 0-0.1-0.1-0.6-0.1-1.2 0 0 0 0-0.1-0.1-0.1-0.2-0.1-0.5-0.1-1-0.1 0-0.1-0.1 0-0.3-0.1-0.5 0-0.3-0.1-0.6 0-0.1-0.1-0.3 0-0.2-0.1-0.5 0-0.2-0.1-0.4 0-0.2-0.1-0.5-0.1-0.2-0.1-0.5-0.1-0.1-0.1-0.2-0.1-0.4-0.2-0.7-0.1-0.2-0.1-0.4 0-0.1-0.1-0.1-0.1-0.6-0.3-1.2 0-0.1-0.1-0.1 0 0 0-0.1-0.2-0.5-0.4-1 0-0.1 0-0.2-0.1-0.2-0.2-0.4-0.1-0.3-0.2-0.6-0.1-0.2-0.1-0.3-0.1-0.3-0.2-0.5-0.1-0.1-0.1-0.3-0.2-0.3-0.3-0.6-0.1-0.2-0.2-0.4 0 0 0-0.1-0.3-0.6-0.5-1.1 0-0.1 0-0.1-0.1-0.1-0.2-0.3-0.2-0.4-0.4-0.9-0.1 0-0.1-0.1-0.2-0.3-0.3-0.7-0.2-0.3-0.3-0.6-0.1 0-0.1-0.1-0.5-0.9-1-1.7 0-0.1-0.1-0.2-0.1-0.2-0.3-0.4-0.2-0.4-0.4-0.8-0.2-0.3-0.4-0.6-0.2-0.4-0.5-0.7 0-0.1-0.1-0.2-0.1-0.2-0.2-0.3-0.6-0.9-1.3-1.8 0 0 0 0 0 0 0-0.1-0.5-0.6-1-1.2 0-0.1 0-0.1-0.4-0.5-0.8-0.9 0-0.1-0.1-0.2 0 0 0 0-0.5-0.5-0.9-1.1 0 0-0.1 0-0.1-0.2-0.2-0.3-0.3-0.3-0.6-0.7-0.1 0-0.1-0.1-0.2-0.2-0.4-0.4-0.2-0.2-0.5-0.5 0 0-0.1-0.1-0.2-0.2-0.5-0.5-0.2-0.1-0.3-0.3-0.2-0.1-0.3-0.2-0.2-0.2-0.4-0.5-0.2-0.1-0.4-0.3-0.1-0.1-0.2-0.2-0.3-0.2-0.5-0.4-0.2-0.1-0.3-0.3-0.2-0.1-0.3-0.2-0.3-0.2-0.5-0.4-0.1-0.1-0.2-0.2-0.2-0.2-0.4-0.3-0.3-0.2-0.5-0.4-0.1 0-0.2-0.1-0.2-0.2-0.5-0.4-0.2-0.1-0.4-0.2 0-0.1-0.1-0.1-0.5-0.4-1-0.7 0 0 0 0 0 0 0 0-0.5-0.3-0.9-0.6-0.1 0-0.3-0.1-0.2-0.2-0.5-0.3-0.1-0.1-0.2-0.1-0.5-0.3-0.9-0.5-0.1 0-0.1 0 0 0-0.1-0.1-0.4-0.2-0.8-0.3 0-0.1-0.1-0.1-0.2-0.1-0.4-0.2-0.2 0-0.4-0.1-0.1-0.1-0.3-0.1-0.2-0.1-0.3-0.2-0.2 0-0.3-0.1-0.2 0-0.4-0.1-0.2-0.1-0.4-0.1-0.1-0.1-0.2-0.1-0.2-0.1-0.5-0.1-0.2-0.1-0.3-0.1-0.1 0-0.1 0-0.4-0.1-0.7-0.2-0.1 0-0.2-0.1-0.1 0-0.1 0-0.5-0.1-1-0.1 0 0 0 0-0.1 0-0.3-0.1-0.4 0-0.7 0 0 0 0 0-0.5-0.1-1-0.1-0.1 0-0.1 0-0.4 0-0.8 0.1-0.1 0-0.2 0-0.1 0-0.2 0-0.3 0-0.5 0.1-0.1 0-0.1 0-0.4 0-0.7 0.1-0.1 0-0.1 0-0.2 0-0.4 0.1-0.3 0.1-0.5 0.1-0.2 0.1-0.4 0.1-0.1 0.1-0.3 0.1 0 0.1-0.1 0.1-0.3 0.1-0.6 0.2-0.2 0.1-0.3 0.2-0.5 0.2-0.9 0.4l-4.6 2.7q0.5-0.3 0.9-0.5 0.2 0 0.3-0.1 0.3-0.1 0.6-0.3 0.2 0 0.5-0.1 0.1-0.1 0.3-0.1 0.3-0.1 0.5-0.1 0.2-0.1 0.4-0.1 0.4-0.1 0.8-0.2 0.1 0 0.1 0 0.4 0 0.8-0.1 0.1 0 0.1 0 0.5 0 0.9 0 0.5 0 1 0 0.4 0.1 0.7 0.1 0.2 0 0.4 0 0.5 0.1 1 0.2 0.1 0 0.2 0.1 0.4 0 0.8 0.1 0.2 0.1 0.3 0.1 0.4 0.1 0.7 0.2 0.2 0.1 0.4 0.2 0.3 0.1 0.7 0.2 0.2 0.1 0.4 0.1 0.3 0.2 0.7 0.3 0.1 0.1 0.3 0.2 0.5 0.2 0.9 0.4 0.1 0 0.2 0 0.5 0.3 1.1 0.6 0.3 0.2 0.6 0.4 0.5 0.3 1.1 0.6 0 0.1 0.1 0.1 0.5 0.3 1.1 0.7 0.1 0.1 0.3 0.3 0.4 0.2 0.7 0.5 0.3 0.2 0.5 0.3 0.3 0.3 0.6 0.5 0.3 0.2 0.5 0.4 0.3 0.3 0.6 0.5 0.3 0.2 0.5 0.5 0.3 0.2 0.6 0.5 0.2 0.2 0.5 0.4 0.3 0.3 0.6 0.6 0.2 0.2 0.4 0.4 0.3 0.4 0.6 0.7 0.2 0.2 0.4 0.4 0.3 0.4 0.7 0.7 0.1 0.2 0.3 0.4 0.4 0.5 0.9 1.1 0.1 0.1 0.2 0.2 0.4 0.4 0.7 0.9 0.5 0.7 1 1.3 0 0 0 0 0.7 0.9 1.4 1.9 0.1 0.2 0.3 0.5 0.2 0.3 0.4 0.7 0.2 0.3 0.4 0.6 0.2 0.4 0.5 0.7 0.1 0.3 0.3 0.6 0.5 0.9 1 1.8 0.2 0.3 0.4 0.7 0.2 0.3 0.3 0.7 0.3 0.5 0.5 1 0.1 0.1 0.2 0.3 0.3 0.6 0.6 1.3 0 0.1 0.1 0.3 0.2 0.5 0.4 1 0.1 0.2 0.2 0.4 0.2 0.5 0.3 1 0.1 0.2 0.2 0.4 0.2 0.6 0.4 1.2 0.1 0 0.1 0.1 0.2 0.7 0.4 1.3 0.1 0.3 0.1 0.5 0.2 0.4 0.3 0.9 0.1 0.2 0.1 0.5 0.1 0.4 0.2 0.9 0.1 0.2 0.2 0.5 0.1 0.4 0.1 0.9 0.1 0.2 0.1 0.4 0.1 0.6 0.2 1.2 0.1 0.1 0.1 0.2 0.1 0.6 0.2 1.3 0 0.2 0 0.3 0.1 0.5 0.1 1 0 0.2 0 0.4 0.1 0.5 0.1 0.9 0 0.2 0 0.4 0 0.7 0 1.3 0 0.6 0 1.3 0 0.1 0 0.3-0.1 0.5-0.1 0.9 0 0.2 0 0.4-0.1 0.4-0.1 0.7-0.1 0.3-0.1 0.6 0 0.3-0.1 0.6-0.1 0.3-0.1 0.5-0.1 0.3-0.1 0.6-0.1 0.3-0.2 0.6-0.1 0.3-0.1 0.5-0.2 0.4-0.3 0.8-0.1 0.2-0.2 0.4 0 0.1 0 0.2-0.2 0.4-0.4 0.8 0 0 0 0.1-0.2 0.5-0.5 0.9 0 0 0 0-0.2 0.4-0.5 0.8 0 0.1-0.1 0.2-0.2 0.3-0.4 0.5 0 0.1-0.1 0.2-0.2 0.3-0.4 0.5-0.1 0.1-0.2 0.2-0.3 0.3-0.6 0.6 0 0.1-0.1 0.1-0.2 0.3-0.5 0.5-0.1 0.1-0.2 0.1-0.2 0.2-0.5 0.4-0.1 0.1-0.2 0.2-0.3 0.2-0.7 0.4l4.6-2.7q0.4-0.2 0.7-0.4 0.1-0.1 0.2-0.2 0.3-0.1 0.5-0.3 0.1-0.1 0.2-0.2 0.3-0.2 0.5-0.4 0.1-0.1 0.1-0.1 0.3-0.3 0.6-0.6 0.1-0.1 0.1-0.2 0.3-0.3 0.5-0.5 0-0.1 0.1-0.2 0.2-0.3 0.4-0.6 0.1-0.1 0.1-0.2 0 0 0.1 0 0.2-0.4 0.4-0.8 0 0 0 0 0.2-0.4 0.4-0.8 0 0 0 0 0.1-0.1 0.1-0.2 0.2-0.4 0.3-0.7 0.1-0.1 0.1-0.2 0.1-0.1 0.1-0.2 0-0.2 0.1-0.3 0.1-0.4 0.2-0.7 0.1-0.1 0.1-0.2 0-0.2 0.1-0.3 0.1-0.3 0.1-0.7 0.1-0.1 0.1-0.2 0-0.2 0.1-0.3 0-0.3 0.1-0.6 0-0.1 0-0.3 0.1-0.1 0.1-0.3 0-0.3 0.1-0.5 0-0.1 0-0.3 0-0.2 0-0.4 0.1-0.3 0.1-0.5 0-0.1 0-0.2 0-0.3 0.1-0.6 0-0.2 0-0.4 0 0 0-0.1 0-0.5 0-1.1 0 0 0-0.1 0-0.5 0-1z"/>
						</g>
						<g id="&lt;Group&gt;">
							<g id="&lt;Group&gt;">
								<path id="&lt;Path&gt;" class="s13" d="m605.8 773.7l-2 2.4-2.8 1.6 2.7-3.2c0.6-0.6 1.3-0.8 2.1-0.8z"/>
							</g>
							<path id="&lt;Path&gt;" class="s20" d="m601.2 739.6q-0.2-0.1-0.4-0.2c-7.5-4.1-13.7-0.5-13.7 8.2-0.1 6.9 3.7 15 9 20.4 0.9 0.9 1.7 2.1 2.3 3.4l2.6 6.3 2.7-3.2c0.6-0.6 1.4-0.9 2.4-0.8 5.3 0.7 9-3 9.1-9.8 0-9-6.3-19.8-14-24.3z"/>
							<path id="&lt;Path&gt;" class="s1" d="m601.1 748.7c-3.1-1.8-5.7-0.3-5.7 3.3 0 3.7 2.5 8.1 5.7 9.9 3.2 1.9 5.7 0.4 5.7-3.3 0.1-3.6-2.5-8-5.7-9.9z"/>
							<path id="&lt;Path&gt;" class="s13" d="m617.9 761.6q0 0 0-0.1 0-0.1 0-0.3 0-0.1 0-0.3 0-0.1 0-0.2 0-0.1-0.1-0.3 0-0.1 0-0.1 0-0.2 0-0.4 0-0.1 0-0.3 0 0 0 0-0.1-0.4-0.1-0.7-0.1 0-0.1-0.1 0 0 0-0.1 0-0.2-0.1-0.5 0-0.1 0-0.2 0-0.1-0.1-0.2 0-0.2 0-0.4 0-0.1-0.1-0.2 0-0.1 0-0.3-0.1-0.1-0.1-0.2 0-0.2-0.1-0.3 0-0.2 0-0.3-0.1-0.1-0.1-0.2 0-0.2-0.1-0.4 0-0.1-0.1-0.2 0-0.1 0-0.1-0.1-0.4-0.2-0.7 0 0 0 0-0.1-0.1-0.1-0.1-0.1-0.3-0.2-0.6 0-0.1 0-0.1-0.1-0.2-0.1-0.3-0.1-0.2-0.1-0.3-0.1-0.1-0.1-0.3-0.1-0.1-0.1-0.2-0.1-0.1-0.1-0.2-0.1-0.2-0.2-0.4 0-0.1-0.1-0.2 0 0 0-0.1-0.2-0.3-0.3-0.7 0 0 0 0-0.1-0.1-0.1-0.2-0.1-0.2-0.3-0.5 0 0 0-0.1-0.1-0.2-0.2-0.4-0.1-0.2-0.2-0.3 0-0.1 0-0.1-0.3-0.6-0.7-1.1 0 0 0-0.1-0.1-0.1-0.2-0.3-0.1-0.2-0.2-0.4-0.2-0.2-0.3-0.4-0.1-0.2-0.3-0.4 0-0.1 0-0.1-0.1-0.1-0.1-0.2-0.4-0.6-0.8-1.1 0 0 0 0-0.3-0.4-0.6-0.8 0 0-0.1 0-0.2-0.3-0.4-0.6-0.1 0-0.1-0.1 0 0 0 0-0.3-0.3-0.5-0.6-0.1 0-0.1-0.1-0.1-0.1-0.1-0.2-0.2-0.1-0.4-0.3 0-0.1-0.1-0.1-0.1-0.1-0.2-0.3-0.1-0.1-0.3-0.2 0-0.1-0.1-0.1-0.1-0.2-0.2-0.3-0.1-0.1-0.3-0.2 0-0.1-0.1-0.2-0.1-0.1-0.3-0.2-0.1-0.1-0.2-0.2-0.1-0.1-0.1-0.1-0.2-0.2-0.3-0.3-0.1-0.1-0.2-0.1-0.1-0.1-0.2-0.2-0.1-0.1-0.3-0.2-0.1-0.1-0.1-0.2-0.1-0.1-0.3-0.1-0.1-0.1-0.2-0.2-0.1-0.1-0.1-0.1-0.2-0.1-0.4-0.3-0.1 0-0.2-0.1 0 0-0.1-0.1-0.2-0.2-0.5-0.4-0.1 0-0.1 0 0 0 0 0-0.3-0.2-0.5-0.3-0.1-0.1-0.2-0.1-0.2-0.1-0.3-0.2-0.1 0-0.1-0.1-0.3-0.1-0.6-0.2 0 0 0-0.1-0.1 0-0.1 0-0.2-0.1-0.5-0.2 0 0 0 0-0.2-0.1-0.3-0.1-0.1-0.1-0.2-0.1-0.1-0.1-0.2-0.1-0.1-0.1-0.2-0.1-0.1 0-0.2-0.1-0.1 0-0.2 0-0.1-0.1-0.2-0.1-0.1 0-0.1 0-0.2-0.1-0.4-0.1-0.1-0.1-0.2-0.1 0 0 0 0-0.2-0.1-0.4-0.1-0.1 0-0.2 0 0 0 0 0-0.3-0.1-0.6-0.1 0 0 0 0-0.1 0-0.2 0-0.2-0.1-0.4-0.1 0 0 0 0-0.3 0-0.7 0 0 0 0 0-0.2 0-0.5 0 0 0-0.1 0 0 0-0.1 0-0.2 0-0.3 0.1-0.1 0-0.1 0-0.2 0-0.4 0-0.1 0-0.1 0.1-0.1 0-0.2 0-0.2 0-0.3 0.1-0.1 0-0.2 0.1-0.1 0-0.2 0-0.1 0-0.1 0-0.2 0.1-0.4 0.2-0.1 0-0.1 0.1-0.3 0.1-0.6 0.2l-2.7 1.7q0.2-0.2 0.5-0.3 0.1-0.1 0.2-0.1 0.2-0.1 0.3-0.1 0.2-0.1 0.3-0.1 0.1-0.1 0.2-0.1 0.2-0.1 0.3-0.1 0.1 0 0.3 0 0.2-0.1 0.4-0.1 0.1 0 0.1 0 0.2-0.1 0.5-0.1 0 0 0.1 0 0.2 0 0.5 0 0.3 0 0.6 0 0.2 0 0.4 0.1 0.1 0 0.2 0 0.3 0 0.7 0.1 0 0 0.1 0 0.2 0.1 0.5 0.1 0.1 0 0.2 0.1 0.2 0 0.4 0.1 0.1 0 0.2 0.1 0.2 0 0.4 0.1 0.1 0.1 0.3 0.1 0.2 0.1 0.4 0.2 0.1 0 0.2 0.1 0.3 0.1 0.5 0.2 0.1 0 0.1 0.1 0.4 0.1 0.7 0.3 0.2 0.1 0.4 0.2 0.3 0.2 0.6 0.4 0.1 0 0.1 0 0.3 0.3 0.6 0.5 0.2 0.1 0.3 0.1 0.2 0.2 0.4 0.4 0.1 0.1 0.3 0.2 0.2 0.1 0.4 0.3 0.1 0.1 0.2 0.2 0.2 0.2 0.4 0.3 0.2 0.1 0.3 0.3 0.2 0.1 0.4 0.3 0.1 0.1 0.2 0.3 0.2 0.1 0.4 0.3 0.1 0.1 0.3 0.3 0.2 0.2 0.3 0.3 0.2 0.2 0.3 0.3 0.2 0.2 0.4 0.5 0.1 0 0.2 0.1 0.3 0.4 0.5 0.7 0.1 0.1 0.1 0.1 0.3 0.3 0.5 0.6 0.3 0.4 0.6 0.8 0 0 0 0 0.4 0.6 0.8 1.1 0.1 0.2 0.2 0.3 0.1 0.2 0.3 0.4 0.1 0.2 0.2 0.4 0.1 0.2 0.3 0.5 0.1 0.1 0.2 0.3 0.3 0.6 0.6 1.1 0.1 0.2 0.2 0.4 0.1 0.2 0.2 0.4 0.2 0.3 0.3 0.6 0.1 0.1 0.1 0.2 0.2 0.4 0.4 0.8 0 0.1 0 0.2 0.2 0.3 0.3 0.6 0 0.1 0.1 0.3 0.1 0.2 0.2 0.5 0.1 0.1 0.1 0.3 0.1 0.3 0.3 0.7 0 0 0 0.1 0.1 0.4 0.2 0.8 0.1 0.1 0.1 0.2 0.1 0.3 0.2 0.6 0 0.2 0.1 0.3 0 0.3 0.1 0.5 0 0.2 0.1 0.3 0 0.3 0.1 0.6 0 0.1 0 0.3 0.1 0.3 0.2 0.7 0 0 0 0.1 0 0.4 0.1 0.8 0 0.1 0 0.2 0 0.3 0.1 0.5 0 0.2 0 0.3 0 0.3 0 0.6 0 0.1 0 0.2 0.1 0.4 0.1 0.8 0 0.4-0.1 0.7 0 0.1 0 0.3 0 0.2 0 0.5 0 0.1 0 0.2-0.1 0.3-0.1 0.5 0 0.1 0 0.3-0.1 0.2-0.1 0.4 0 0.1-0.1 0.3 0 0.2-0.1 0.3 0 0.2 0 0.4-0.1 0.2-0.1 0.3-0.1 0.2-0.2 0.5 0 0.1-0.1 0.2 0 0.1 0 0.2-0.1 0.2-0.2 0.4 0 0.1-0.1 0.1-0.1 0.3-0.2 0.5 0 0 0 0-0.2 0.3-0.3 0.5-0.1 0.1-0.1 0.1-0.1 0.2-0.2 0.4-0.1 0-0.1 0.1-0.2 0.1-0.3 0.3 0 0-0.1 0.1-0.1 0.2-0.3 0.4 0 0-0.1 0-0.1 0.2-0.3 0.3-0.1 0-0.1 0.1-0.2 0.1-0.3 0.2-0.1 0.1-0.1 0.1-0.2 0.1-0.4 0.3l2.7-1.6q0.2-0.2 0.4-0.3 0.1 0 0.2-0.1 0.1-0.1 0.3-0.2 0-0.1 0.1-0.1 0.1-0.1 0.3-0.3 0 0 0 0 0.2-0.2 0.4-0.4 0-0.1 0.1-0.1 0.1-0.2 0.2-0.3 0.1-0.1 0.1-0.2 0.2-0.1 0.3-0.3 0 0 0-0.1 0.1 0 0.1 0 0.1-0.2 0.2-0.5 0 0 0 0 0.2-0.2 0.3-0.5 0 0 0 0 0-0.1 0-0.1 0.1-0.2 0.2-0.4 0.1-0.1 0.1-0.2 0 0 0-0.1 0.1-0.1 0.1-0.1 0.1-0.3 0.1-0.5 0.1-0.1 0.1-0.1 0-0.1 0-0.2 0.1-0.2 0.1-0.4 0-0.1 0.1-0.1 0-0.1 0-0.2 0-0.2 0.1-0.3 0-0.1 0-0.2 0-0.1 0-0.2 0.1-0.2 0.1-0.3 0-0.1 0-0.2 0-0.1 0-0.3 0-0.1 0.1-0.2 0-0.1 0-0.2 0-0.2 0-0.4 0-0.1 0-0.2 0 0 0 0 0-0.4 0-0.7 0 0 0 0 0-0.4 0-0.7z"/>
						</g>
						<g id="&lt;Group&gt;">
							<g id="&lt;Group&gt;">
								<path id="&lt;Path&gt;" class="s13" d="m493.6 710l-2.7 3.2-3.7 2.1 3.6-4.2c0.7-0.8 1.7-1.2 2.8-1.1z"/>
							</g>
							<path id="&lt;Path&gt;" class="s20" d="m487.4 664.8q-0.2-0.2-0.5-0.3c-10-5.5-18.1-0.7-18.2 10.8-0.1 9.2 4.9 19.9 11.9 27.1 1.3 1.3 2.3 2.9 3.1 4.6l3.5 8.3 3.6-4.2c0.8-0.9 1.9-1.2 3.2-1.1 7 1 11.9-3.9 12-13 0-11.9-8.3-26.3-18.6-32.2z"/>
							<path id="&lt;Path&gt;" class="s1" d="m487.3 676.9c-4.2-2.4-7.6-0.5-7.6 4.3 0 4.9 3.4 10.8 7.6 13.2 4.2 2.4 7.6 0.5 7.6-4.4 0-4.8-3.4-10.7-7.6-13.1z"/>
							<path id="&lt;Path&gt;" class="s13" d="m509.6 694q0-0.1 0-0.2 0-0.2 0-0.3 0-0.2 0-0.4 0-0.2 0-0.3 0-0.2-0.1-0.4 0-0.1 0-0.2 0-0.3 0-0.6-0.1-0.1-0.1-0.2 0-0.1 0-0.1 0-0.5-0.1-1 0 0 0 0 0-0.1 0-0.1-0.1-0.4-0.2-0.8 0-0.1 0-0.2 0-0.2-0.1-0.3 0-0.3-0.1-0.5 0-0.1 0-0.3-0.1-0.2-0.1-0.4-0.1-0.1-0.1-0.3-0.1-0.2-0.1-0.4-0.1-0.2-0.1-0.4 0-0.1-0.1-0.2 0-0.2-0.1-0.5-0.1-0.2-0.1-0.4 0 0-0.1-0.1-0.1-0.4-0.3-0.9 0 0 0 0 0-0.1 0-0.1-0.1-0.4-0.3-0.9 0 0 0-0.1-0.1-0.2-0.2-0.3 0-0.3-0.1-0.5-0.1-0.1-0.2-0.3 0-0.1-0.1-0.3 0-0.2-0.1-0.3-0.1-0.2-0.2-0.5-0.1-0.1-0.1-0.3-0.1 0-0.1-0.1-0.2-0.4-0.4-0.9 0 0 0 0-0.1-0.1-0.1-0.3-0.2-0.3-0.4-0.7 0 0 0-0.1-0.2-0.2-0.3-0.5-0.1-0.3-0.2-0.5-0.1 0-0.1-0.1-0.4-0.7-0.8-1.4 0-0.1-0.1-0.1-0.1-0.2-0.2-0.4-0.2-0.3-0.3-0.6-0.2-0.2-0.4-0.5-0.1-0.3-0.3-0.5-0.1-0.1-0.1-0.2-0.1-0.1-0.2-0.2-0.5-0.8-1-1.5 0 0 0 0 0 0 0 0-0.4-0.5-0.8-1 0-0.1-0.1-0.1-0.3-0.4-0.6-0.7 0-0.1-0.1-0.2 0 0 0 0-0.3-0.4-0.7-0.8 0 0 0-0.1-0.1-0.1-0.3-0.2-0.2-0.3-0.4-0.5-0.1-0.1-0.1-0.1-0.2-0.2-0.3-0.4-0.2-0.1-0.4-0.3-0.1-0.1-0.1-0.2-0.2-0.1-0.4-0.3-0.1-0.2-0.3-0.3-0.1-0.1-0.1-0.2-0.2-0.1-0.4-0.3-0.2-0.1-0.3-0.3-0.1-0.1-0.2-0.2-0.2-0.1-0.4-0.3-0.1-0.1-0.2-0.2-0.1-0.1-0.3-0.2-0.2-0.2-0.4-0.3-0.1-0.1-0.1-0.2-0.2-0.1-0.4-0.2-0.1-0.2-0.3-0.3-0.1 0-0.2-0.1-0.2-0.2-0.4-0.3-0.2-0.1-0.3-0.2 0 0-0.1-0.1-0.4-0.2-0.8-0.5 0 0 0 0 0 0 0 0-0.4-0.3-0.8-0.5-0.1 0-0.1-0.1-0.3-0.1-0.5-0.2-0.1-0.1-0.1-0.1-0.4-0.2-0.8-0.4 0 0 0 0-0.1 0-0.1-0.1-0.3-0.1-0.6-0.3-0.1 0-0.2 0-0.1-0.1-0.2-0.1-0.2-0.1-0.4-0.2-0.1 0-0.2-0.1-0.1 0-0.3-0.1-0.1 0-0.2-0.1-0.2 0-0.3-0.1-0.2 0-0.3-0.1-0.1 0-0.2 0-0.2-0.1-0.4-0.1-0.1-0.1-0.3-0.1 0 0 0 0-0.3-0.1-0.6-0.1-0.1-0.1-0.2-0.1 0 0 0 0-0.4-0.1-0.8-0.1 0 0 0 0-0.1 0-0.3 0-0.3-0.1-0.5-0.1 0 0 0 0-0.5 0-0.9 0 0 0 0 0-0.3 0-0.6 0-0.1 0-0.2 0-0.1 0-0.2 0-0.2 0-0.4 0.1 0 0-0.1 0-0.3 0-0.6 0.1 0 0 0 0-0.2 0-0.3 0.1-0.2 0-0.4 0.1-0.2 0-0.3 0.1-0.1 0-0.3 0 0 0.1-0.1 0.1-0.2 0.1-0.5 0.2-0.1 0-0.2 0.1-0.4 0.2-0.7 0.3l-3.7 2.2q0.4-0.2 0.7-0.4 0.1 0 0.3-0.1 0.2-0.1 0.5-0.2 0.1 0 0.3-0.1 0.2-0.1 0.3-0.1 0.2-0.1 0.4-0.1 0.1 0 0.3-0.1 0.3 0 0.6-0.1 0.1 0 0.1 0 0.3 0 0.6-0.1 0.1 0 0.2 0 0.3 0 0.6 0 0.5 0 0.9 0 0.3 0.1 0.5 0.1 0.2 0 0.3 0 0.4 0.1 0.8 0.2 0.1 0 0.2 0 0.3 0.1 0.7 0.1 0.1 0.1 0.2 0.1 0.3 0.1 0.6 0.2 0.1 0 0.3 0.1 0.3 0.1 0.5 0.2 0.2 0 0.3 0.1 0.3 0.1 0.6 0.2 0.1 0.1 0.3 0.1 0.3 0.2 0.7 0.4 0.1 0 0.1 0 0.5 0.2 0.9 0.5 0.3 0.1 0.5 0.3 0.4 0.2 0.9 0.5 0 0 0 0 0.5 0.3 0.9 0.6 0.2 0.1 0.3 0.2 0.3 0.2 0.6 0.5 0.2 0.1 0.4 0.2 0.2 0.2 0.5 0.4 0.2 0.2 0.3 0.3 0.3 0.2 0.5 0.4 0.2 0.2 0.4 0.4 0.3 0.2 0.5 0.4 0.2 0.2 0.4 0.4 0.2 0.2 0.5 0.4 0.1 0.2 0.3 0.4 0.3 0.2 0.5 0.5 0.2 0.1 0.3 0.3 0.3 0.3 0.6 0.6 0.1 0.1 0.2 0.3 0.4 0.4 0.8 0.9 0 0 0.1 0.1 0.3 0.4 0.6 0.8 0.4 0.5 0.8 1 0 0 0 0 0.5 0.8 1.1 1.5 0.1 0.2 0.2 0.4 0.2 0.3 0.4 0.6 0.1 0.2 0.3 0.5 0.2 0.3 0.3 0.6 0.2 0.2 0.3 0.4 0.4 0.7 0.8 1.5 0.2 0.2 0.3 0.5 0.2 0.3 0.3 0.6 0.2 0.4 0.4 0.8 0.1 0.1 0.1 0.2 0.3 0.5 0.5 1.1 0 0.1 0.1 0.2 0.2 0.4 0.3 0.8 0.1 0.2 0.2 0.4 0.1 0.3 0.3 0.7 0 0.2 0.1 0.3 0.2 0.5 0.3 1 0 0.1 0.1 0.1 0.1 0.5 0.3 1.1 0.1 0.2 0.1 0.3 0.1 0.4 0.2 0.8 0.1 0.2 0.1 0.4 0.1 0.3 0.2 0.7 0 0.2 0.1 0.4 0.1 0.3 0.1 0.7 0.1 0.2 0.1 0.4 0.1 0.4 0.2 0.9 0 0.1 0 0.1 0.1 0.6 0.2 1.1 0 0.1 0 0.3 0 0.4 0.1 0.7 0 0.2 0 0.4 0 0.4 0 0.7 0 0.2 0.1 0.3 0 0.6 0 1.1 0 0.5-0.1 1 0 0.1 0 0.3 0 0.3 0 0.6 0 0.2-0.1 0.4 0 0.3 0 0.6-0.1 0.2-0.1 0.4 0 0.2-0.1 0.5 0 0.2-0.1 0.4 0 0.3-0.1 0.5 0 0.2-0.1 0.5-0.1 0.2-0.1 0.4-0.1 0.3-0.2 0.6-0.1 0.2-0.1 0.3-0.1 0.1-0.1 0.2-0.1 0.3-0.3 0.6 0 0.1 0 0.1-0.2 0.4-0.4 0.7 0 0 0 0-0.2 0.4-0.4 0.7 0 0.1-0.1 0.1-0.1 0.3-0.3 0.5 0 0.1-0.1 0.1-0.2 0.2-0.3 0.4-0.1 0.1-0.1 0.2-0.3 0.2-0.5 0.5-0.1 0-0.1 0-0.2 0.2-0.4 0.4-0.1 0.1-0.2 0.1-0.2 0.2-0.4 0.3 0 0.1-0.1 0.2-0.3 0.1-0.6 0.3l3.7-2.1q0.3-0.2 0.6-0.4 0 0 0.1-0.1 0.2-0.1 0.4-0.3 0.1-0.1 0.2-0.1 0.2-0.2 0.4-0.4 0 0 0.1-0.1 0.2-0.2 0.4-0.5 0.1 0 0.2-0.1 0.1-0.2 0.3-0.4 0-0.1 0.1-0.2 0.2-0.2 0.3-0.4 0.1-0.1 0.1-0.2 0 0 0 0 0.2-0.3 0.4-0.6 0 0 0 0 0.2-0.3 0.3-0.6 0-0.1 0.1-0.1 0-0.1 0-0.1 0.1-0.3 0.3-0.6 0-0.1 0-0.2 0.1-0.1 0.1-0.1 0-0.1 0.1-0.2 0.1-0.3 0.2-0.6 0-0.1 0-0.2 0-0.1 0.1-0.2 0-0.3 0.1-0.5 0-0.1 0.1-0.3 0-0.1 0-0.2 0.1-0.2 0.1-0.4 0-0.2 0-0.3 0.1-0.1 0.1-0.2 0-0.2 0-0.5 0.1-0.1 0.1-0.2 0-0.1 0-0.3 0-0.2 0.1-0.4 0-0.1 0-0.1 0-0.3 0-0.6 0-0.1 0-0.3 0 0 0 0 0-0.5 0-0.9 0-0.1 0-0.1 0-0.4 0-0.8z"/>
						</g>
						<path id="&lt;Path&gt;" class="s1" d=""/>
						<g id="&lt;Group&gt;">
							<g id="&lt;Group&gt;" style="opacity: .1;mix-blend-mode: multiply">
								<g id="&lt;Group&gt;">
									<path id="&lt;Path&gt;" class="s0" d="m525.8 380.9l-86 48.4c-3.8 2.1-3.7 7.6 0.1 9.6l38.9 20.8c1.7 0.9 3.7 0.9 5.4-0.1l85.5-49.1c3.8-2.2 3.7-7.7-0.2-9.7l-38.4-20c-1.7-0.9-3.6-0.8-5.3 0.1z"/>
								</g>
							</g>
							<g id="&lt;Group&gt;">
								<g id="&lt;Group&gt;">
									<g id="&lt;Group&gt;">
										<g id="&lt;Group&gt;">
											<path id="&lt;Path&gt;" class="s21" d="m460.2 436.1c-3.1-1.8-5.7-0.4-5.7 3.3 0 3.6 2.5 8 5.7 9.8 3.1 1.8 5.7 0.4 5.7-3.3 0-3.6-2.5-8-5.7-9.8z"/>
											<path id="&lt;Compound Path&gt;" fill-rule="evenodd" class="s11" d="m469.3 447.9c0 5.7-4.1 8-9.1 5.2-5-2.9-9.1-9.9-9-15.7 0-5.7 4-8 9-5.1 5 2.8 9.1 9.8 9.1 15.6zm-3.4-2c0-3.6-2.5-8-5.7-9.8-3.1-1.8-5.7-0.4-5.7 3.3 0 3.6 2.5 8 5.7 9.8 3.1 1.8 5.7 0.4 5.7-3.3z"/>
										</g>
										<path id="&lt;Path&gt;" class="s22" d="m475.8 443.7q0-0.2 0-0.5 0-0.1-0.1-0.2 0 0 0 0 0-0.1 0-0.2 0-0.2 0-0.4-0.1-0.3-0.1-0.5 0 0 0 0 0 0 0 0 0-0.2-0.1-0.4 0-0.3-0.1-0.5 0-0.1 0-0.2 0 0 0-0.1-0.1-0.1-0.1-0.2 0-0.2-0.1-0.5-0.1-0.2-0.1-0.3 0-0.1 0-0.1 0 0 0-0.1-0.1-0.2-0.2-0.4-0.1-0.3-0.2-0.5 0 0 0-0.1 0 0 0 0-0.1-0.2-0.1-0.3-0.1-0.2-0.2-0.5-0.1-0.1-0.1-0.3 0 0-0.1 0 0-0.1 0-0.1-0.1-0.2-0.2-0.4-0.1-0.3-0.2-0.5 0 0 0-0.1-0.1 0-0.1-0.1-0.1-0.2-0.2-0.4-0.1-0.2-0.3-0.4 0-0.1-0.1-0.3 0 0 0-0.1-0.2-0.2-0.3-0.4-0.2-0.2-0.4-0.5 0-0.1 0-0.1-0.3-0.4-0.6-0.8 0 0 0 0 0 0 0 0-0.2-0.3-0.4-0.6-0.2-0.2-0.3-0.4 0 0 0 0 0 0 0 0-0.2-0.2-0.4-0.4-0.2-0.2-0.3-0.4-0.1 0-0.1-0.1 0 0-0.1 0-0.1-0.2-0.2-0.3-0.2-0.2-0.4-0.4 0 0-0.1-0.1-0.1 0-0.1-0.1-0.1 0-0.2-0.1-0.2-0.2-0.4-0.4-0.1-0.1-0.2-0.1 0-0.1-0.1-0.1 0-0.1-0.1-0.1-0.2-0.2-0.4-0.3-0.1-0.1-0.3-0.2 0 0 0-0.1-0.1 0-0.1 0-0.2-0.1-0.4-0.3-0.2-0.1-0.4-0.2 0 0 0 0-0.2-0.1-0.3-0.2-0.1 0-0.1-0.1-0.1 0-0.2 0 0-0.1-0.1-0.1-0.1 0-0.2-0.1 0 0-0.1 0 0-0.1-0.1-0.1-0.1 0-0.3-0.1-0.2-0.1-0.4-0.2 0 0 0 0-0.1 0-0.2 0-0.1 0-0.2-0.1 0 0 0 0-0.1 0-0.2 0-0.1-0.1-0.1-0.1-0.1 0-0.2 0 0 0-0.1 0-0.1 0-0.1-0.1-0.1 0-0.2 0 0 0-0.1 0-0.1 0-0.1 0-0.1 0-0.1 0-0.1-0.1-0.2-0.1-0.1 0-0.1 0-0.1 0-0.1 0-0.1 0-0.3 0 0 0 0 0-0.1 0-0.1 0-0.2 0-0.3 0-0.1 0-0.1 0 0 0-0.1 0.1-0.2 0-0.4 0 0 0 0 0 0 0 0 0-0.3 0.1-0.6 0.2 0 0-0.1 0 0 0 0 0-0.1 0.1-0.2 0.1-0.1 0-0.1 0.1-0.2 0-0.4 0.1l-6.5 3.8q0.2-0.1 0.3-0.2 0.1 0 0.2 0 0.1-0.1 0.2-0.1 0 0 0.1 0 0.3-0.1 0.6-0.2 0 0 0 0 0.2 0 0.4-0.1 0.1 0 0.2 0 0.1 0 0.3 0 0 0 0.1 0 0.1 0 0.3 0 0 0 0.1 0 0.1 0 0.2 0 0.1 0.1 0.2 0.1 0.1 0 0.2 0 0.1 0 0.3 0 0 0.1 0.1 0.1 0.1 0 0.3 0 0.1 0.1 0.1 0.1 0.2 0 0.3 0.1 0.1 0 0.1 0 0.2 0.1 0.5 0.2 0 0 0 0 0.2 0.1 0.4 0.1 0 0.1 0.1 0.1 0.2 0.1 0.3 0.2 0.1 0 0.1 0 0.2 0.1 0.4 0.3 0.5 0.2 0.9 0.5 0.1 0 0.1 0.1 0.4 0.3 0.8 0.6 0.1 0 0.1 0.1 0.4 0.3 0.8 0.6 0 0.1 0.1 0.1 0.4 0.4 0.7 0.8 0.1 0 0.1 0 0.4 0.4 0.8 0.9 0 0 0 0 0.3 0.5 0.7 0.9 0 0.1 0 0.1 0.3 0.4 0.6 0.9 0.2 0.2 0.4 0.5 0.1 0.3 0.3 0.5 0.1 0.1 0.1 0.3 0.3 0.4 0.5 0.8 0 0.1 0 0.1 0.3 0.5 0.5 1.1 0 0 0.1 0 0.2 0.5 0.4 1 0 0.1 0 0.1 0.2 0.6 0.4 1.1 0 0 0 0.1 0.1 0.5 0.3 1 0 0 0 0.1 0.1 0.5 0.2 1.1 0 0 0 0 0.1 0.5 0.1 1 0 0.1 0 0.1 0.1 0.6 0.1 1.1 0 0.5-0.1 1 0 0 0 0.1 0 0.4-0.1 0.8 0 0.1 0 0.1-0.1 0.4-0.2 0.8-0.1 0-0.1 0.1-0.1 0.3-0.2 0.6 0 0.1-0.1 0.1-0.1 0.4-0.3 0.7 0 0-0.1 0-0.1 0.3-0.3 0.5-0.1 0.1-0.2 0.2-0.1 0.1-0.3 0.3-0.1 0.1-0.2 0.1-0.2 0.2-0.5 0.4 0 0 0 0l6.5-3.8q0.3-0.2 0.6-0.4 0 0 0.1-0.1 0.2-0.1 0.4-0.3 0-0.1 0.1-0.2 0.2-0.2 0.3-0.4 0.1-0.1 0.1-0.1 0 0 0 0 0.2-0.3 0.4-0.7 0 0 0 0 0 0 0 0 0.1-0.2 0.2-0.5 0-0.1 0-0.2 0.1-0.1 0.1-0.1 0-0.1 0-0.1 0.1-0.3 0.1-0.5 0.1-0.1 0.1-0.2 0 0 0-0.1 0-0.1 0-0.1 0.1-0.3 0.1-0.5 0-0.1 0-0.2 0-0.1 0-0.1 0-0.1 0-0.1 0.1-0.2 0.1-0.4 0-0.3 0-0.5 0 0 0 0 0-0.2 0-0.4z"/>
									</g>
									<g id="&lt;Group&gt;">
										<g id="&lt;Group&gt;">
											<path id="&lt;Path&gt;" class="s21" d="m540.2 393.4c-3.1-1.8-5.7-0.4-5.7 3.3 0 3.6 2.6 8 5.7 9.8 3.2 1.8 5.7 0.4 5.7-3.2 0.1-3.7-2.5-8.1-5.7-9.9z"/>
											<path id="&lt;Compound Path&gt;" fill-rule="evenodd" class="s23" d="m549.3 405.2c0 5.7-4.1 8-9.1 5.2-5-2.9-9-9.9-9-15.7 0-5.7 4.1-8 9.1-5.1 5 2.8 9 9.8 9 15.6zm-3.4-1.9c0.1-3.7-2.5-8.1-5.7-9.9-3.1-1.8-5.7-0.4-5.7 3.3 0 3.6 2.6 8 5.7 9.8 3.2 1.8 5.7 0.4 5.7-3.2z"/>
										</g>
										<path id="&lt;Path&gt;" class="s24" d="m555.8 401q0-0.2 0-0.4 0-0.1 0-0.2 0-0.1 0-0.1-0.1-0.1-0.1-0.2 0-0.2 0-0.4 0-0.3-0.1-0.5 0 0 0 0 0 0 0 0 0-0.2-0.1-0.4 0-0.3 0-0.5-0.1-0.1-0.1-0.2 0 0 0-0.1 0-0.1-0.1-0.2 0-0.2-0.1-0.5 0-0.1-0.1-0.3 0-0.1 0-0.1 0 0 0 0-0.1-0.3-0.2-0.5-0.1-0.2-0.1-0.5-0.1 0-0.1-0.1 0 0 0 0 0-0.2-0.1-0.3-0.1-0.2-0.2-0.5 0-0.1-0.1-0.3 0 0 0 0-0.1-0.1-0.1-0.1-0.1-0.2-0.2-0.4-0.1-0.3-0.2-0.5 0 0 0-0.1-0.1 0-0.1-0.1-0.1-0.2-0.2-0.4-0.1-0.2-0.2-0.4-0.1-0.1-0.2-0.3 0 0 0 0-0.1-0.2-0.3-0.4-0.2-0.3-0.3-0.6-0.1-0.1-0.1-0.1-0.3-0.4-0.6-0.8 0 0 0 0 0 0 0 0-0.2-0.3-0.4-0.6-0.1-0.2-0.3-0.4 0 0 0 0 0 0 0 0-0.2-0.2-0.4-0.4-0.1-0.2-0.3-0.4-0.1 0-0.1-0.1 0 0 0 0-0.2-0.2-0.3-0.3-0.2-0.2-0.4-0.4 0 0-0.1-0.1 0 0-0.1-0.1-0.1 0-0.2-0.1-0.2-0.2-0.4-0.4-0.1-0.1-0.2-0.1 0-0.1 0-0.1-0.1-0.1-0.2-0.1-0.2-0.2-0.4-0.3-0.1-0.1-0.3-0.2 0 0 0-0.1 0 0-0.1 0-0.2-0.1-0.4-0.2-0.1-0.2-0.3-0.3-0.1 0-0.1 0-0.2-0.1-0.3-0.2-0.1 0-0.1 0-0.1-0.1-0.2-0.1 0-0.1-0.1-0.1-0.1 0-0.2-0.1 0 0-0.1 0 0 0 0-0.1-0.2 0-0.4-0.1-0.2-0.1-0.4-0.1 0-0.1 0-0.1-0.1 0-0.2 0 0 0-0.1-0.1-0.1 0-0.1 0-0.1 0-0.2 0-0.1-0.1-0.1-0.1-0.1 0-0.1 0-0.1 0-0.2 0 0 0-0.1-0.1-0.1 0-0.1 0-0.1 0-0.2 0 0 0-0.1 0-0.1 0-0.1 0-0.1 0-0.2-0.1-0.1 0-0.1 0-0.1 0-0.1 0-0.1 0-0.2 0-0.1 0-0.1 0-0.1 0-0.1 0-0.2 0-0.3 0 0 0-0.1 0 0 0.1 0 0.1-0.3 0-0.5 0 0 0 0 0 0 0 0 0-0.3 0.1-0.6 0.2 0 0 0 0-0.1 0-0.1 0-0.1 0.1-0.2 0.1-0.1 0-0.1 0.1-0.2 0-0.4 0.1l-6.5 3.8q0.2-0.1 0.4-0.2 0 0 0.1 0 0.1-0.1 0.2-0.1 0.1 0 0.1 0 0.3-0.1 0.6-0.2 0 0 0 0 0.2 0 0.4-0.1 0.1 0 0.2 0 0.1 0 0.3 0 0.1 0 0.1 0 0.2 0 0.3 0 0.1 0 0.2 0 0.1 0 0.2 0.1 0.1 0 0.2 0 0.1 0 0.2 0 0.1 0 0.2 0.1 0.1 0 0.1 0 0.2 0 0.3 0.1 0.1 0 0.2 0 0.1 0 0.2 0.1 0.1 0 0.2 0 0.2 0.1 0.4 0.2 0 0 0 0 0.2 0.1 0.4 0.2 0.1 0 0.1 0 0.2 0.1 0.3 0.2 0.1 0 0.2 0 0.2 0.1 0.4 0.3 0.4 0.2 0.9 0.5 0 0.1 0 0.1 0.4 0.3 0.8 0.6 0.1 0 0.1 0.1 0.4 0.3 0.8 0.6 0 0.1 0.1 0.1 0.4 0.4 0.7 0.8 0.1 0 0.1 0 0.4 0.5 0.8 0.9 0 0 0 0 0.4 0.5 0.7 1 0 0 0 0 0.3 0.4 0.6 0.9 0.2 0.3 0.4 0.5 0.2 0.3 0.3 0.5 0.1 0.2 0.1 0.3 0.3 0.4 0.5 0.8 0 0.1 0 0.1 0.3 0.5 0.5 1.1 0.1 0 0.1 0 0.2 0.5 0.4 1.1 0 0 0 0 0.2 0.6 0.4 1.1 0 0 0 0.1 0.1 0.5 0.3 1 0 0.1 0 0.1 0.1 0.5 0.2 1.1 0 0 0 0 0.1 0.5 0.1 1.1 0 0 0 0 0.1 0.6 0.1 1.1 0 0.5-0.1 1 0 0 0 0.1 0 0.4-0.1 0.8 0 0.1 0 0.1-0.1 0.4-0.2 0.8 0 0-0.1 0.1-0.1 0.3-0.2 0.6 0 0.1 0 0.1-0.2 0.4-0.4 0.7 0 0-0.1 0.1-0.1 0.2-0.3 0.4-0.1 0.1-0.1 0.2-0.2 0.1-0.4 0.3-0.1 0.1-0.1 0.1-0.3 0.2-0.6 0.4 0 0 0 0l6.6-3.8q0.2-0.2 0.5-0.4 0.1 0 0.1-0.1 0.2-0.1 0.4-0.3 0-0.1 0.1-0.2 0.2-0.2 0.4-0.4 0-0.1 0-0.1 0 0 0 0 0.2-0.3 0.4-0.6 0-0.1 0-0.1 0 0 0 0 0.1-0.2 0.2-0.5 0-0.1 0.1-0.2 0-0.1 0-0.1 0-0.1 0-0.1 0.1-0.3 0.2-0.5 0-0.1 0-0.2 0 0 0-0.1 0-0.1 0.1-0.1 0-0.3 0-0.5 0-0.1 0-0.2 0-0.1 0.1-0.1 0-0.1 0-0.1 0-0.2 0-0.4 0-0.3 0-0.5 0 0 0 0 0-0.2 0-0.4z"/>
									</g>
								</g>
								<g id="&lt;Group&gt;">
									<path id="&lt;Path&gt;" class="s2" d="m435.7 296q0-0.2 0-0.4 0.1-0.2 0.1-0.3 0 0 0-0.1 0 0 0-0.1 0-0.3 0-0.5 0.1-0.2 0.1-0.5 0 0 0 0 0 0 0 0 0-0.2 0.1-0.5 0-0.2 0.1-0.5 0-0.1 0-0.2 0 0 0.1-0.1 0-0.1 0-0.2 0.1-0.2 0.1-0.5 0.1-0.2 0.2-0.4 0 0 0 0 0-0.1 0-0.1 0.1-0.3 0.2-0.5 0-0.3 0.1-0.5 0-0.1 0.1-0.1 0 0 0-0.1 0-0.1 0.1-0.3 0.1-0.2 0.2-0.5 0.1-0.1 0.1-0.3 0.1 0 0.1-0.1 0 0 0 0 0.1-0.2 0.2-0.5 0.1-0.2 0.3-0.5 0 0 0-0.1 0 0 0.1-0.1 0.1-0.2 0.2-0.4 0.1-0.2 0.2-0.5 0.1-0.1 0.2-0.2 0-0.1 0-0.1 0.2-0.2 0.3-0.4 0.2-0.4 0.4-0.7 0 0 0.1-0.1 0.3-0.4 0.6-0.8 0-0.1 0-0.1 0.2-0.2 0.4-0.5 0.2-0.2 0.4-0.5 0 0 0 0 0 0 0 0 0.2-0.2 0.4-0.4 0.1-0.2 0.3-0.4 0.1-0.1 0.1-0.1 0 0 0.1-0.1 0.1-0.1 0.2-0.3 0.2-0.2 0.4-0.4 0.1 0 0.2-0.1 0 0 0.1-0.1 0.1-0.1 0.2-0.2 0.2-0.1 0.4-0.3 0.1-0.1 0.2-0.2 0 0 0.1-0.1 0.1 0 0.1-0.1 0.2-0.1 0.4-0.3 0.2-0.1 0.4-0.2 0 0 0-0.1 0 0 0.1 0 0.2-0.1 0.4-0.3 0.2-0.1 0.4-0.2 0-0.1 0.1-0.1l71-41q0.2-0.1 0.3-0.2 0.2-0.1 0.4-0.2 0.1 0 0.3-0.1 0 0 0 0 0.1 0 0.1 0 0.2-0.1 0.4-0.2 0.2-0.1 0.4-0.2 0 0 0 0 0.1 0 0.1 0 0.1 0 0.3-0.1 0.2 0 0.4-0.1 0.1 0 0.2 0 0 0 0-0.1 0.1 0 0.2 0 0.2 0 0.4-0.1 0.1 0 0.2 0 0.1 0 0.1 0 0.1 0 0.1 0 0.2 0 0.5 0 0.1 0 0.2 0 0 0 0.1 0 0.1 0 0.2 0 0.3 0 0.5 0.1 0 0 0 0 0.1 0 0.2 0 0.2 0.1 0.5 0.2 0 0 0.1 0 0.3 0.1 0.7 0.3l40.1 23.3q-0.4-0.2-0.8-0.3-0.3-0.1-0.6-0.2 0 0-0.1 0-0.3-0.1-0.7-0.1-0.1 0-0.2 0-0.3 0-0.7 0-0.1 0-0.1 0-0.4 0.1-0.8 0.2 0 0-0.1 0-0.4 0.1-0.8 0.2-0.1 0-0.1 0-0.5 0.2-0.9 0.4-0.1 0-0.1 0-0.5 0.2-0.9 0.5l-71.1 41q-0.4 0.3-0.9 0.6-0.1 0.1-0.1 0.1-0.4 0.3-0.9 0.6 0 0.1-0.1 0.1-0.4 0.4-0.8 0.7 0 0.1-0.1 0.1-0.4 0.4-0.8 0.8 0 0.1-0.1 0.1-0.4 0.5-0.8 0.9 0 0 0 0-0.8 1-1.4 2-0.3 0.3-0.4 0.7-0.2 0.2-0.4 0.5 0 0.1-0.1 0.2-0.3 0.5-0.5 0.9 0 0.1 0 0.1-0.3 0.6-0.6 1.2 0 0 0 0-0.2 0.6-0.4 1.1-0.1 0.1-0.1 0.1-0.2 0.6-0.4 1.2 0 0 0 0-0.2 0.6-0.3 1.1 0 0.1 0 0.2-0.1 0.5-0.2 1.1 0 0 0 0-0.1 0.6-0.2 1.2 0 0 0 0 0 0.6 0 1.2l0.3 125q0 0.6 0.1 1.1 0 0 0 0.1 0 0.5 0.1 0.9 0 0.1 0 0.1 0.1 0.4 0.3 0.8 0 0.1 0 0.2 0.1 0.3 0.3 0.7 0 0 0 0 0.2 0.4 0.4 0.7 0 0.1 0.1 0.1 0.1 0.3 0.3 0.5 0.1 0.1 0.2 0.2 0.2 0.2 0.3 0.3 0.1 0.1 0.2 0.2 0.3 0.2 0.6 0.4l-40.1-23.4q-0.3-0.1-0.6-0.3 0-0.1-0.1-0.2-0.2-0.1-0.4-0.3-0.1-0.1-0.1-0.2-0.2-0.2-0.4-0.5 0 0-0.1-0.1 0 0 0 0-0.2-0.3-0.3-0.7 0 0-0.1 0 0 0 0-0.1-0.1-0.2-0.2-0.4 0-0.1-0.1-0.2 0-0.1 0-0.2 0-0.1 0-0.1-0.1-0.3-0.2-0.5 0-0.1 0-0.2 0-0.1 0-0.1-0.1-0.1-0.1-0.2 0-0.2 0-0.5-0.1-0.1-0.1-0.2 0-0.1 0-0.1 0-0.1 0-0.1 0-0.2 0-0.5 0-0.2 0-0.4 0-0.1 0-0.1l-0.4-125q0-0.3 0-0.5z"/>
									<path id="&lt;Path&gt;" class="s25" d="m435.8 308.3l0.3 113.2v0.1q0 0.2 0 0.4 0 0.3 0 0.5 0 0 0 0.1 0 0 0 0.1 0 0.1 0.1 0.2 0 0.3 0 0.5 0 0.1 0.1 0.2 0 0 0 0.1 0 0.1 0 0.2 0.1 0.2 0.2 0.5 0 0 0 0.1 0 0.1 0 0.2 0.1 0.1 0.1 0.2 0.1 0.2 0.2 0.4 0 0.1 0 0.1 0.1 0 0.1 0 0.1 0.4 0.3 0.7 0 0 0 0 0.1 0.1 0.1 0.1 0.2 0.3 0.4 0.5 0 0.1 0.1 0.2 0.2 0.2 0.4 0.3 0.1 0.1 0.1 0.2 0.3 0.2 0.6 0.3l40.1 23.4q-0.3-0.2-0.6-0.4-0.1-0.1-0.2-0.2-0.1-0.1-0.3-0.3-0.1-0.1-0.2-0.2-0.2-0.2-0.3-0.5-0.1 0-0.1-0.1-0.2-0.3-0.4-0.7 0 0 0 0-0.2-0.4-0.3-0.7 0-0.1 0-0.2-0.2-0.4-0.3-0.8 0 0 0-0.1-0.1-0.4-0.1-0.9 0 0 0-0.1-0.1-0.5-0.1-1.1l-0.3-113.4z"/>
									<path id="&lt;Path&gt;" class="s25" d="m510.3 242.2l40.1 23.3-57.1 33-40.1-23.3z"/>
									<g id="&lt;Group&gt;">
										<path id="&lt;Path&gt;" class="s2" d="m485.4 303c-5.3 3.1-9.6 10.6-9.6 16.8l0.3 125c0 6.2 4.4 8.7 9.8 5.6l71-41c5.3-3.1 9.7-10.6 9.6-16.8l-0.3-125c0-6.2-4.4-8.7-9.7-5.6z"/>
									</g>
									<path id="&lt;Path&gt;" class="s26" d="m459.1 439.5l-0.4-128.5q0-0.6 0.1-1.2 0 0 0-0.1 0-0.6 0.1-1.2 0 0 0 0 0.1-0.6 0.2-1.2 0.1 0 0.1-0.1 0.1-0.5 0.3-1.1 0 0 0-0.1 0.2-0.6 0.4-1.2 0 0 0-0.1 0.2-0.5 0.5-1.1 0 0 0-0.1 0.3-0.5 0.6-1.1 0-0.1 0-0.1 0.3-0.5 0.5-1 0.1-0.1 0.2-0.2 0.1-0.3 0.3-0.5 0.2-0.4 0.4-0.7 0.7-1.1 1.5-2 0 0 0-0.1 0.4-0.4 0.9-0.9 0 0 0-0.1 0.4-0.4 0.9-0.8 0-0.1 0.1-0.1 0.4-0.4 0.8-0.7 0.1-0.1 0.1-0.1 0.5-0.4 0.9-0.7 0 0 0.1-0.1 0.5-0.3 1-0.6l73.2-42.2q0.5-0.3 0.9-0.6 0.1 0 0.1 0 0.5-0.2 1-0.4 0 0 0 0 0.3-0.1 0.6-0.1l4.2 2.4q-0.2 0-0.3 0.1 0 0-0.1 0-0.4 0.2-0.9 0.4 0 0-0.1 0-0.5 0.2-1 0.5l-73.1 42.3q-0.5 0.3-1 0.6-0.1 0-0.1 0.1-0.5 0.3-0.9 0.6-0.1 0.1-0.1 0.1-0.4 0.4-0.9 0.8 0 0-0.1 0-0.4 0.4-0.8 0.9 0 0-0.1 0-0.4 0.5-0.8 1 0 0 0 0-0.8 1-1.5 2.1-0.2 0.3-0.4 0.6-0.2 0.3-0.4 0.5 0 0.2-0.1 0.3-0.3 0.5-0.5 0.9 0 0.1-0.1 0.1-0.2 0.6-0.5 1.2 0 0 0 0.1-0.3 0.5-0.5 1.1 0 0 0 0.1-0.2 0.6-0.4 1.2 0 0 0 0-0.2 0.6-0.3 1.2-0.1 0-0.1 0.1-0.1 0.6-0.2 1.2 0 0 0 0-0.1 0.6-0.1 1.2-0.1 0-0.1 0.1 0 0.6 0 1.1l0.4 128.8z"/>
									<path id="&lt;Path&gt;" class="s11" d="m459.1 439.5l-0.4-128.5q0-0.6 0.1-1.2 0 0 0-0.1 0-0.6 0.1-1.2 0 0 0 0 0.1-0.6 0.2-1.2 0.1 0 0.1-0.1 0.1-0.5 0.3-1.1 0 0 0-0.1 0.2-0.6 0.4-1.2 0 0 0-0.1 0.2-0.5 0.5-1.1 0 0 0-0.1 0.3-0.5 0.6-1.1 0-0.1 0-0.1 0.3-0.5 0.5-1 0.1-0.1 0.2-0.2 0.1-0.3 0.3-0.5 0.2-0.4 0.4-0.7 0.7-1.1 1.5-2 0 0 0-0.1 0.4-0.4 0.9-0.9 0 0 0-0.1 0.4-0.4 0.9-0.8 0-0.1 0.1-0.1 0.4-0.4 0.8-0.7 0.1-0.1 0.1-0.1 0.5-0.4 0.9-0.7 0 0 0.1-0.1 0.5-0.3 1-0.6l73.2-42.2q0.5-0.3 0.9-0.6 0.1 0 0.1 0 0.5-0.2 1-0.4 0 0 0 0 0.3-0.1 0.6-0.1l4.2 2.4q-0.2 0-0.3 0.1 0 0-0.1 0-0.4 0.2-0.9 0.4 0 0-0.1 0-0.5 0.2-1 0.5l-73.1 42.3q-0.5 0.3-1 0.6-0.1 0-0.1 0.1-0.5 0.3-0.9 0.6-0.1 0.1-0.1 0.1-0.4 0.4-0.9 0.8 0 0-0.1 0-0.4 0.4-0.8 0.9 0 0-0.1 0-0.4 0.5-0.8 1 0 0 0 0-0.8 1-1.5 2.1-0.2 0.3-0.4 0.6-0.2 0.3-0.4 0.5 0 0.2-0.1 0.3-0.3 0.5-0.5 0.9 0 0.1-0.1 0.1-0.2 0.6-0.5 1.2 0 0 0 0.1-0.3 0.5-0.5 1.1 0 0 0 0.1-0.2 0.6-0.4 1.2 0 0 0 0-0.2 0.6-0.3 1.2-0.1 0-0.1 0.1-0.1 0.6-0.2 1.2 0 0 0 0-0.1 0.6-0.1 1.2-0.1 0-0.1 0.1 0 0.6 0 1.1l0.4 128.8z"/>
									<g id="&lt;Group&gt;">
										<path id="&lt;Path&gt;" class="s3" d="m554.6 291.2q0.8-0.4 1.5-0.4c1.1 0 2.3 0.9 2.3 2.6l0.3 100.8c0 1.5-1.1 3.3-2.5 4.1q-0.7 0.4-1.4 0.4c-1.3 0-2.3-1-2.3-2.5l-0.3-100.8c0-1.6 1.1-3.4 2.4-4.2z"/>
										<path id="&lt;Path&gt;" class="s3" d="m540.8 299.2q0.7-0.4 1.4-0.4c1.2 0 2.3 0.9 2.3 2.6l0.3 100.8c0 1.5-1 3.3-2.4 4.1q-0.7 0.5-1.5 0.5c-1.3 0-2.3-1.1-2.3-2.6l-0.2-100.8c0-1.6 1-3.4 2.4-4.2z"/>
										<path id="&lt;Path&gt;" class="s3" d="m526.9 307.2q0.7-0.4 1.4-0.4c1.2 0 2.4 0.9 2.4 2.6l0.2 100.8c0 1.6-1 3.3-2.4 4.1q-0.7 0.5-1.4 0.5c-1.4 0-2.3-1.1-2.3-2.6l-0.3-100.8c0-1.6 1-3.4 2.4-4.2z"/>
										<path id="&lt;Path&gt;" class="s3" d="m513 315.2q0.8-0.4 1.5-0.4c1.3 0 2.3 1.1 2.3 2.6l0.3 100.8c0 1.6-1.1 3.4-2.5 4.1q-0.7 0.5-1.4 0.5c-1.3 0-2.3-1.1-2.3-2.6l-0.3-100.8c0-1.6 1.1-3.4 2.4-4.2z"/>
										<path id="&lt;Path&gt;" class="s3" d="m499.2 323.2q0.7-0.4 1.4-0.4c1.2 0 2.3 0.9 2.3 2.6l0.3 100.8c0 1.6-1 3.4-2.4 4.2q-0.7 0.4-1.5 0.4c-1.3 0-2.3-1.1-2.3-2.6l-0.2-100.8c0-1.6 1-3.4 2.4-4.2z"/>
									</g>
									<g id="&lt;Group&gt;">
										<path id="&lt;Path&gt;" class="s27" d="m552.2 295.4l0.3 100.8c0 1.5 1 2.5 2.3 2.5q0.7 0 1.5-0.4 0.5-0.3 1-0.9-0.1 0-0.2 0c-1.4 0-2.3-1-2.3-2.5l-0.3-100.8c0-1.2 0.5-2.4 1.3-3.3q-0.6 0.1-1.2 0.4c-1.4 0.8-2.4 2.6-2.4 4.2z"/>
										<path id="&lt;Path&gt;" class="s27" d="m538.4 303.4l0.2 100.8c0 1.5 1 2.6 2.3 2.6q0.8 0 1.5-0.5 0.6-0.3 1.1-0.9-0.2 0.1-0.3 0.1c-1.3 0-2.3-1.1-2.3-2.6l-0.3-100.8c0-1.1 0.6-2.4 1.4-3.3q-0.6 0.1-1.2 0.4c-1.4 0.8-2.5 2.6-2.4 4.2z"/>
										<path id="&lt;Path&gt;" class="s27" d="m524.5 311.4l0.2 100.8c0.1 1.5 1 2.6 2.4 2.6q0.7 0 1.4-0.5 0.6-0.3 1.1-0.9-0.1 0.1-0.3 0.1c-1.3 0-2.3-1.1-2.3-2.6l-0.2-100.8c0-1.1 0.5-2.4 1.3-3.3q-0.6 0.1-1.2 0.4c-1.4 0.8-2.4 2.6-2.4 4.2z"/>
										<path id="&lt;Path&gt;" class="s27" d="m510.6 319.4l0.3 100.8c0 1.5 1 2.6 2.3 2.6q0.7 0 1.4-0.5 0.6-0.3 1.1-0.9-0.1 0.1-0.2 0.1c-1.4 0-2.3-1.1-2.3-2.6l-0.3-100.8c0-1.1 0.5-2.4 1.3-3.3q-0.6 0.1-1.2 0.4c-1.3 0.8-2.4 2.6-2.4 4.2z"/>
										<path id="&lt;Path&gt;" class="s27" d="m496.8 327.4l0.2 100.8c0 1.5 1 2.6 2.3 2.6q0.8 0 1.5-0.4 0.6-0.4 1.1-0.9-0.2 0-0.3 0c-1.3 0-2.3-1.1-2.3-2.6l-0.3-100.8c0-1.1 0.6-2.4 1.4-3.3q-0.6 0.1-1.2 0.4c-1.4 0.8-2.4 2.6-2.4 4.2z"/>
									</g>
									<g id="&lt;Group&gt;">
										<path id="&lt;Path&gt;" class="s9" d="m470.4 271.7l37.7-21.8c0.9-0.5 2-0.5 2.8 0l5.4 3.1c1.8 1.1 1.8 3.8 0 4.9l-37.4 21.5c-0.8 0.5-1.9 0.5-2.8 0l-7.8-4.5c-0.8-0.5-0.8-1.6 0-2z"/>
									</g>
									<path id="&lt;Path&gt;" class="s11" d="m516.6 257.6q-0.1-0.1-0.3-0.2l-5.4-3.1c-0.8-0.5-1.9-0.5-2.8 0l-37.7 21.8-2.1-1.2c-0.8-0.5-0.8-1.6 0-2l2.1-1.2 37.7-21.8c0.9-0.5 2-0.5 2.8 0l5.4 3.1c1.7 1 1.8 3.4 0.3 4.6z"/>
									<g id="&lt;Group&gt;">
										<g id="&lt;Group&gt;">
											<path id="&lt;Path&gt;" class="s28" d="m474.6 196.1l4 2.3 3.9-2.3-3.9-2.3z"/>
										</g>
										<g id="&lt;Group&gt;">
											<g id="&lt;Group&gt;">
												<g id="&lt;Group&gt;">
													<path id="&lt;Path&gt;" class="s28" d="m504 177.6l4.2 2.4 4.1-2.4-4.1-2.4z"/>
												</g>
												<g id="&lt;Group&gt;">
													<path id="&lt;Path&gt;" class="s11" d="m504 177.6v81.4l4.2 2.4v-81.4z"/>
												</g>
											</g>
										</g>
										<g id="&lt;Group&gt;">
											<path id="&lt;Path&gt;" class="s11" d="m474.6 192.9v-0.2q0 0 0.1-0.1 0 0 0-0.1v-0.1q0-0.1 0-0.1 0 0 0 0 0-0.1 0-0.2 0 0 0-0.1 0 0 0.1-0.1 0-0.1 0-0.1 0-0.1 0-0.1 0 0 0 0 0-0.1 0-0.1 0.1 0 0.1-0.1 0 0 0-0.1 0-0.1 0.1-0.1 0-0.1 0-0.1 0-0.1 0.1-0.1 0 0 0 0 0 0 0-0.1 0 0 0-0.1 0 0 0.1-0.1 0-0.1 0.1-0.2 0 0 0-0.1 0 0 0.1 0 0-0.1 0-0.1 0.1-0.1 0.2-0.3 0-0.1 0.1-0.2 0.1 0 0.1-0.1 0.1-0.1 0.1-0.1 0.1-0.1 0.1-0.1 0-0.1 0.1-0.1 0 0 0-0.1 0 0 0 0 0.1 0 0.1 0 0-0.1 0.1-0.1 0-0.1 0.1-0.1 0.1-0.1 0.1-0.1 0-0.1 0.1-0.1 0 0 0 0 0 0 0 0 0.1-0.1 0.1-0.1 0.1 0 0.1-0.1 0.1 0 0.1 0 0.1-0.1 0.1-0.1 0 0 0.1 0l1.6-1 25.7-14.8 1.6-0.9q0 0 0.1-0.1 0 0 0.1 0 0 0 0 0 0-0.1 0-0.1 0 0 0.1 0 0 0 0 0 0.1 0 0.1 0 0.1 0 0.1 0 0 0 0-0.1 0 0 0 0 0.1 0 0.1 0 0.1 0 0.1 0 0 0 0 0 0 0 0 0 0.1 0 0.2 0 0 0 0 0 0-0.1 0-0.1h0.1q0 0 0.1 0 0 0 0.1 0 0.1 0.1 0.1 0.1 0.1 0 0.1 0 0 0 0.1 0 0 0 0 0 0.1 0.1 0.2 0.1l3.9 2.4q-0.1-0.1-0.1-0.1 0 0-0.1 0 0 0 0 0-0.3-0.1-0.6-0.1-0.1 0-0.2 0 0 0 0 0-0.1 0.1-0.1 0.1-0.1 0-0.1 0 0 0-0.1 0 0 0-0.1 0.1 0 0 0 0-0.2 0.1-0.3 0.1l-1.6 1-4 2.3-11.9 6.8-9.8 5.7-1.6 0.9q-0.3 0.2-0.5 0.4 0 0 0 0-0.1 0.1-0.2 0.2-0.2 0.1-0.3 0.2-0.1 0.2-0.3 0.4 0 0-0.1 0.1 0 0 0 0.1-0.1 0-0.2 0.1 0 0.2-0.1 0.3 0 0 0 0-0.2 0.3-0.3 0.6 0 0 0 0-0.3 0.7-0.4 1.3 0 0.2 0 0.5v1.9 1.3 1 11.5-0.1 67.1l-3.9-2.3-0.1-79.5h0.1l-0.1-1.4z"/>
											<path id="&lt;Path&gt;" class="s9" d="m478.6 195.2c0-1.5 1-3.4 2.4-4.2l1.6-0.9 25.7-14.8 1.6-1c1.3-0.7 2.4-0.1 2.4 1.4v1.9l0.1 13.8h-0.1l0.1 67.6-4.2 2.4v-81.4l0.1-0.1-25.7 14.8 0.1 13.8-0.2 0.1 0.1 67-4 2.3v-78.6-2.2z"/>
										</g>
									</g>
									<path id="&lt;Path&gt;" class="s3" d="m566.5 392.6q0 0.5 0 1v-10.1z"/>
									<path id="&lt;Path&gt;" class="s3" d="m566.4 353.8l0.1 29.7-0.1-29.8z"/>
									<path id="&lt;Path&gt;" class="s3" d="m478.3 450.6q-0.1-0.1-0.2-0.3-0.1 0-0.2-0.1-0.1-0.1-0.2-0.2-0.1-0.1-0.2-0.2-0.1-0.2-0.1-0.3-0.1 0-0.1-0.1-0.1-0.1-0.2-0.3-0.1-0.2-0.2-0.4 0 0 0 0-0.1-0.2-0.2-0.5 0-0.1-0.1-0.2 0-0.1 0-0.2-0.1-0.2-0.2-0.5 0-0.1-0.1-0.3 0 0 0-0.1 0-0.3-0.1-0.6 0-0.2 0-0.3 0 0 0-0.1-0.1-0.5-0.1-1.1l-0.3-113.4 12.4 7.1 0.4 110.3-2.7 1.6c-2.9 1.6-5.5 1.7-7.3 0.4q-0.1 0-0.2-0.1-0.1-0.1-0.1-0.1z"/>
									<path id="&lt;Path&gt;" class="s29" d="m475.8 319.8q0-0.6 0-1.2 0 0 0 0 0.1-0.6 0.2-1.2 0 0 0 0 0.1-0.6 0.2-1.1 0-0.1 0-0.2 0.1-0.3 0.2-0.7 0.1-0.2 0.1-0.4 0 0 0 0 0.2-0.6 0.4-1.2 0 0 0.1-0.1 0-0.1 0.1-0.3 0.1-0.4 0.3-0.8 0 0 0 0 0.1-0.1 0.1-0.2 0.2-0.5 0.5-1 0 0 0-0.1 0.2-0.4 0.5-0.9 0.1-0.1 0.1-0.2 0.2-0.3 0.3-0.5 0.1 0 0.1 0 0.1-0.4 0.4-0.7 0.6-1 1.4-2 0 0 0 0 0.2-0.1 0.3-0.3 0.3-0.3 0.5-0.6 0.1 0 0.1-0.1 0.1 0 0.1 0 0.3-0.3 0.5-0.6l12.7 7.3c-3.9 3.7-6.8 9.6-6.8 14.6v11.2l-12.4-7.1z"/>
									<path id="&lt;Path&gt;" class="s3" d="m566.2 281.7c0-6.1-4.4-8.6-9.7-5.5l-58.6 34.4q-1.5 0.9-2.9 2.1l-12.7-7.3q0.1-0.1 0.2-0.2 0.1 0 0.1-0.1 0.2-0.2 0.5-0.3 0.1-0.2 0.3-0.4 0.1 0 0.1-0.1 0.3-0.2 0.6-0.4 0.2-0.1 0.3-0.2 0 0 0.1-0.1 0.5-0.3 0.9-0.6l71.1-41q0.4-0.3 0.9-0.5 0 0 0.1 0 0.1-0.1 0.3-0.1 0.3-0.2 0.6-0.3 0 0 0 0 0.2 0 0.4-0.1 0.3-0.1 0.5-0.1 0 0 0.1 0 0.2-0.1 0.3-0.1 0.3 0 0.5-0.1 0 0 0.1 0 0.2 0 0.3 0 0.2 0 0.4 0 0.1 0 0.2 0 0.1 0 0.3 0 0.2 0.1 0.4 0.1 0.2 0 0.3 0.1 0.2 0 0.4 0.1 0.4 0.1 0.7 0.3c1.8 1 2.9 3.2 2.9 6.3z"/>
									<path id="&lt;Path&gt;" class="s3" d="m481.8 306q0 0-0.1 0 0 0.1-0.1 0.1 0 0 0 0-0.2 0.3-0.5 0.6-1.2 1.4-2.2 3-0.1 0.2-0.3 0.5 0 0 0 0-0.6 1-1.1 2.2 0 0.1-0.1 0.2 0 0 0 0-0.2 0.4-0.3 0.8-0.1 0.2-0.1 0.3 0 0 0 0-0.1 0.1-0.1 0.1 0 0 0 0-0.2 0.6-0.4 1.2 0 0 0 0 0 0 0 0 0 0 0 0 0 0.2-0.1 0.4c-0.4 1.5-0.6 3-0.6 4.4v11.6l-40-23.1-0.1-11.8q0-0.3 0-0.5 0-0.2 0-0.4 0.1-0.2 0.1-0.3 0 0 0-0.1 0 0 0-0.1 0-0.3 0-0.5 0.1-0.2 0.1-0.5 0 0 0 0 0 0 0 0 0-0.2 0.1-0.5 0-0.2 0.1-0.5 0-0.1 0-0.2 0 0 0.1-0.1 0-0.1 0-0.2 0.1-0.2 0.1-0.5 0.1-0.2 0.2-0.4 0 0 0 0 0-0.1 0-0.1 0.1-0.3 0.2-0.5 0-0.3 0.1-0.5 0-0.1 0.1-0.1 0 0 0-0.1 0-0.1 0.1-0.3 0.1-0.2 0.2-0.5 0.1-0.1 0.1-0.3 0.1 0 0.1-0.1 0 0 0 0 0.1-0.2 0.2-0.5 0.1-0.2 0.3-0.5 0 0 0-0.1 0 0 0.1-0.1 0.1-0.2 0.2-0.4 0.1-0.2 0.2-0.5 0.1-0.1 0.2-0.2 0-0.1 0-0.1 0.2-0.2 0.3-0.4 0.2-0.4 0.4-0.7 0 0 0.1-0.1 0.3-0.4 0.6-0.8 0-0.1 0-0.1 0.2-0.2 0.4-0.5 0.2-0.2 0.4-0.5 0 0 0 0 0 0 0 0 0.2-0.2 0.4-0.4 0.1-0.2 0.3-0.4 0.1-0.1 0.1-0.1 0 0 0.1-0.1 0.1-0.1 0.2-0.3 0.1 0 0.2-0.1l40.2 23.1q-0.2 0.3-0.5 0.6z"/>
									<path id="&lt;Path&gt;" class="s2" d="m476.5 315q0 0 0 0 0 0 0 0z"/>
									<path id="&lt;Path&gt;" class="s2" d="m476.2 316.1q0 0.1 0 0.2-0.1 0.5-0.2 1.1 0 0 0 0-0.1 0.6-0.2 1.2 0 0 0 0 0 0.6 0 1.2c0-1.4 0.2-2.9 0.6-4.4q-0.1 0.4-0.2 0.7z"/>
									<path id="&lt;Path&gt;" class="s2" d="m557.4 261.5q-0.5 0.2-0.9 0.5 0.5-0.3 1-0.5-0.1 0-0.1 0z"/>
									<path id="&lt;Path&gt;" class="s2" d="m484.5 303.6q-0.1 0.1-0.1 0.1 0.5-0.4 1-0.7-0.4 0.3-0.9 0.6z"/>
									<path id="&lt;Path&gt;" class="s2" d="m559.3 260.9q-0.2 0-0.5 0.1 0.3-0.1 0.6-0.1-0.1 0-0.1 0z"/>
									<path id="&lt;Path&gt;" class="s2" d="m558.4 261.1q-0.3 0.1-0.6 0.3 0.3-0.2 0.6-0.3 0 0 0 0z"/>
									<path id="&lt;Path&gt;" class="s2" d="m480.8 307q0 0 0 0-0.8 1-1.4 2-0.3 0.3-0.4 0.7 0 0-0.1 0 1-1.6 2.2-3-0.1 0.2-0.3 0.3z"/>
									<path id="&lt;Path&gt;" class="s2" d="m483.5 304.3q0 0.1-0.1 0.1 0.4-0.2 0.7-0.5-0.3 0.2-0.6 0.4z"/>
									<path id="&lt;Path&gt;" class="s2" d="m477.4 312.6q-0.2 0.4-0.3 0.8 0.1-0.4 0.3-0.8 0 0 0 0z"/>
									<path id="&lt;Path&gt;" class="s2" d="m478.5 310.4q-0.3 0.5-0.5 0.9 0 0.1 0 0.1-0.3 0.5-0.5 1 0.5-1.2 1.1-2.2 0 0.1-0.1 0.2z"/>
									<path id="&lt;Path&gt;" class="s2" d="m476.9 313.8q0 0 0.1-0.1-0.1 0.1-0.1 0.1z"/>
									<path id="&lt;Path&gt;" class="s2" d="m476.2 446.3q0-0.2 0-0.4 0 0.1 0 0.1 0 0.1 0 0.3z"/>
									<path id="&lt;Path&gt;" class="s2" d="m477.1 449.1q-0.1-0.2-0.2-0.4 0 0 0 0 0.1 0.2 0.2 0.4z"/>
									<path id="&lt;Path&gt;" class="s2" d="m476.7 448.2q-0.1-0.2-0.1-0.4 0 0.1 0 0.2 0.1 0.1 0.1 0.2z"/>
									<path id="&lt;Path&gt;" class="s2" d="m477.5 449.8q-0.1-0.2-0.2-0.4 0 0.1 0.1 0.1 0 0.1 0.1 0.3z"/>
									<path id="&lt;Path&gt;" class="s2" d="m478.4 450.7q0.1 0.1 0.2 0.1-0.1-0.1-0.3-0.2 0 0 0.1 0.1z"/>
									<path id="&lt;Path&gt;" class="s2" d="m478.1 450.3q-0.2-0.1-0.4-0.3 0.1 0.1 0.2 0.2 0.1 0.1 0.2 0.1z"/>
									<path id="&lt;Path&gt;" class="s2" d="m476.4 447.3q0-0.2-0.1-0.4 0 0.1 0 0.1 0.1 0.2 0.1 0.3z"/>
									<path id="&lt;Path&gt;" class="s2" d="m562.2 260.9q0.6 0.2 1.1 0.4-0.3-0.2-0.7-0.3-0.2-0.1-0.4-0.1z"/>
									<path id="&lt;Path&gt;" class="s2" d="m483.1 304.8q-0.3 0.1-0.5 0.3 0 0.1-0.1 0.1-0.1 0.1-0.2 0.2 0.4-0.3 0.8-0.6z"/>
									<path id="&lt;Path&gt;" class="s2" d="m561.2 260.7q-0.1 0-0.2 0-0.2 0-0.4 0 0.3 0 0.6 0z"/>
									<path id="&lt;Path&gt;" class="s2" d="m561.5 260.7q0.2 0.1 0.4 0.1-0.2 0-0.4-0.1z"/>
									<path id="&lt;Path&gt;" class="s2" d="m482.3 305.4q-0.2 0.3-0.5 0.6 0.3-0.3 0.5-0.6z"/>
									<path id="&lt;Path&gt;" class="s2" d="m481.7 306q0 0.1-0.1 0.1 0.1 0 0.1-0.1z"/>
									<path id="&lt;Path&gt;" class="s2" d="m560.2 260.7q-0.2 0.1-0.5 0.1 0.3-0.1 0.6-0.1-0.1 0-0.1 0z"/>
									<path id="&lt;Path&gt;" class="s9" d="m458.7 311v10.6l4.5 2.5v-10.8q0-0.5 0-1.1 0-0.1 0.1-0.1 0-0.6 0.1-1.2 0 0 0 0 0.1-0.6 0.2-1.2 0-0.1 0-0.1 0.2-0.6 0.4-1.2 0 0 0 0 0.2-0.6 0.4-1.2 0 0 0-0.1 0.2-0.6 0.5-1.1 0-0.1 0-0.1 0.3-0.6 0.5-1.2 0.1 0 0.1-0.1 0.2-0.4 0.5-0.9 0.1-0.1 0.1-0.3 0.2-0.2 0.4-0.5 0.2-0.3 0.4-0.6 0.7-1.1 1.5-2.1 0 0 0 0 0.4-0.5 0.8-1 0.1 0 0.1 0 0.4-0.4 0.8-0.8l-4.3-2.5q-0.1 0-0.1 0.1-0.5 0.4-0.9 0.8 0 0.1 0 0.1-0.5 0.5-0.9 0.9v0.1q-0.8 0.9-1.5 2-0.2 0.3-0.4 0.6-0.2 0.3-0.3 0.6-0.1 0.1-0.2 0.2-0.2 0.5-0.5 1 0 0 0 0.1-0.3 0.6-0.6 1.1 0 0.1 0 0.1-0.3 0.6-0.5 1.1 0 0.1 0 0.1-0.2 0.6-0.4 1.2 0 0 0 0.1-0.2 0.6-0.3 1.1 0 0.1-0.1 0.1-0.1 0.6-0.2 1.2 0 0 0 0-0.1 0.6-0.1 1.2 0 0.1 0 0.1-0.1 0.6-0.1 1.2z"/>
									<g id="&lt;Group&gt;">
										<path id="&lt;Path&gt;" class="s11" d="m450.6 381.6l3.6 2.1-3.7 2.1-3.5-2.1z"/>
										<g id="&lt;Group&gt;">
											<path id="&lt;Path&gt;" class="s9" d="m448.7 361.7c-1.7 1-3 3.4-3 5.3v23.5c0 2 1.4 2.8 3.1 1.8l5.4-3.1v-5.5l-3.7 2.1v-19.5l3.6-2.1v-5.6z"/>
										</g>
										<path id="&lt;Path&gt;" class="s11" d="m442.1 364.8q0-0.1 0-0.1 0-0.1 0-0.2 0-0.1 0-0.1 0-0.1 0-0.2 0 0 0 0 0 0 0 0 0-0.1 0.1-0.1 0-0.1 0-0.2 0-0.1 0-0.2 0.1 0 0.1-0.1 0-0.1 0-0.2 0 0 0 0 0 0 0 0 0-0.1 0.1-0.2 0 0 0-0.1 0.1-0.1 0.1-0.2 0 0 0-0.1 0.1-0.1 0.1-0.1 0 0 0 0 0 0 0-0.1 0 0 0.1-0.1 0-0.1 0.1-0.2 0-0.1 0-0.2 0.1-0.1 0.2-0.1 0-0.1 0-0.1 0 0 0 0 0.1-0.2 0.2-0.4 0.1-0.1 0.2-0.3 0.1-0.1 0.2-0.1 0-0.1 0.1-0.2 0-0.1 0.1-0.1 0.1-0.1 0.1-0.2 0 0 0 0 0 0 0.1 0 0 0 0-0.1 0.1-0.1 0.2-0.1 0-0.1 0.1-0.2 0.1 0 0.1-0.1 0.1 0 0.1 0 0 0 0 0 0.1-0.1 0.1-0.1 0.1 0 0.1-0.1 0.1 0 0.2-0.1 0 0 0.1-0.1 0 0 0.1 0 0-0.1 0-0.1l5.4-3.1 3.6 2.1-5.4 3.1q-0.3 0.2-0.6 0.4 0 0 0 0.1-0.3 0.2-0.6 0.5 0 0 0 0-0.5 0.6-0.9 1.3 0 0-0.1 0-0.2 0.4-0.3 0.7 0 0.1 0 0.1-0.2 0.3-0.3 0.7 0 0 0 0-0.1 0.4-0.2 0.8 0 0 0 0 0 0.4 0 0.7v23.5q0 0.4 0.1 0.7 0 0 0 0 0.1 0.3 0.2 0.6 0 0 0 0 0.1 0.2 0.2 0.3 0 0.1 0.1 0.1 0.1 0.2 0.3 0.3l-3.6-2.1q-0.1-0.1-0.3-0.2 0-0.1-0.1-0.1 0-0.1-0.1-0.2-0.1-0.1-0.1-0.2 0 0 0 0 0 0 0 0-0.1-0.1-0.1-0.2 0 0 0-0.1-0.1-0.1-0.1-0.2 0 0 0-0.1 0 0 0 0 0 0 0 0 0-0.1 0-0.2 0-0.1 0-0.1-0.1-0.1-0.1-0.2 0-0.1 0-0.1 0 0 0 0v-23.5q0-0.1 0-0.2z"/>
									</g>
									<path id="&lt;Path&gt;" class="s29" d="m483.9 305.4l71-41c5.3-3.1 9.7-0.6 9.7 5.5l0.4 125.1c0 3.1-1.1 6.5-2.9 9.6 2.7-3.6 4.4-8 4.4-12l-0.3-125c0-6.2-4.4-8.7-9.7-5.6l-71.1 41c-2.6 1.6-5 4.2-6.8 7.2 1.5-2 3.3-3.7 5.3-4.8z"/>
								</g>
							</g>
						</g>
						<g id="&lt;Group&gt;">
							<g id="&lt;Group&gt;" style="opacity: .1;mix-blend-mode: multiply">
								<path id="&lt;Path&gt;" class="s0" d="m830.1 687.3c27.3 15.7 27.4 41.2 0.4 56.9-27.1 15.7-71.1 15.7-98.4 0-27.2-15.7-27.3-41.2-0.3-56.9 27.1-15.7 71.1-15.7 98.3 0z"/>
							</g>
							<g id="&lt;Group&gt;">
								<g id="&lt;Clip Group&gt;" clip-path="url(#cp3)">
									<g id="&lt;Group&gt;">
										<path id="&lt;Path&gt;" class="s30" d="m834.9 692.6l-0.1 13.2c0.1-9-5.9-18.1-17.8-25q-4.2-2.3-8.8-4.2l0.1-13.2q4.6 1.8 8.7 4.2c11.9 6.9 17.9 15.9 17.9 25z"/>
										<path id="&lt;Path&gt;" class="s31" d="m808.3 663.4l-0.1 13.2q-3.5-1.4-7.3-2.4v-13.3q3.8 1.1 7.4 2.5z"/>
										<path id="&lt;Path&gt;" class="s32" d="m800.9 660.9v13.3q-3.1-0.9-6.3-1.6v-13.2q3.2 0.7 6.3 1.5z"/>
										<path id="&lt;Path&gt;" class="s33" d="m794.6 659.4v13.2q-3-0.6-6.1-1l0.1-13.3q3 0.5 6 1.1z"/>
										<path id="&lt;Path&gt;" class="s34" d="m788.6 658.3l-0.1 13.3q-2.9-0.5-5.8-0.7v-13.2q3 0.2 5.9 0.6z"/>
										<path id="&lt;Path&gt;" class="s35" d="m782.7 657.7v13.2q-3-0.2-6-0.3v-13.2q3 0 6 0.3z"/>
										<path id="&lt;Path&gt;" class="s36" d="m776.7 657.4v13.2q-3.1-0.1-6.2 0v-13.2q3.1-0.1 6.2 0z"/>
										<path id="&lt;Path&gt;" class="s37" d="m770.5 657.4v13.2q-3.4 0.1-6.7 0.5v-13.3q3.4-0.3 6.7-0.4z"/>
										<path id="&lt;Path&gt;" class="s38" d="m763.8 657.8v13.3q-3.9 0.3-7.7 1v-13.2q3.8-0.7 7.7-1.1z"/>
										<path id="&lt;Path&gt;" class="s39" d="m756.1 658.9v13.2c-4 0.7-7.8 1.7-11.5 2.9v-13.2c3.7-1.2 7.6-2.2 11.5-2.9z"/>
										<path id="&lt;Path&gt;" class="s40" d="m744.6 661.8v13.2c-4.8 1.5-9.2 3.5-13.3 5.8q-0.3 0.2-0.7 0.5v-13.3q0.4-0.2 0.8-0.4c4-2.3 8.5-4.3 13.2-5.8z"/>
										<path id="&lt;Path&gt;" class="s39" d="m730.6 668v13.3q-4.4 2.6-7.7 5.6l0.1-13.2q3.2-3 7.6-5.7z"/>
										<path id="&lt;Path&gt;" class="s38" d="m723 673.7l-0.1 13.2q-2.1 2-3.7 4.1v-13.2q1.6-2.1 3.8-4.1z"/>
										<path id="&lt;Path&gt;" class="s37" d="m719.2 677.8v13.2q-1.4 1.8-2.5 3.6l0.1-13.2q1-1.9 2.4-3.6z"/>
										<path id="&lt;Path&gt;" class="s36" d="m716.8 681.4l-0.1 13.2q-0.9 1.7-1.6 3.4l0.1-13.2q0.6-1.7 1.6-3.4z"/>
										<path id="&lt;Path&gt;" class="s35" d="m715.2 684.8l-0.1 13.2q-0.6 1.7-1 3.4l0.1-13.2q0.3-1.7 1-3.4z"/>
										<path id="&lt;Path&gt;" class="s34" d="m714.2 688.2l-0.1 13.2q-0.3 1.8-0.4 3.5l0.1-13.2q0-1.7 0.4-3.5z"/>
										<path id="&lt;Path&gt;" class="s33" d="m713.8 691.7l-0.1 13.2q0 0.3 0 0.6l0.1-13.3q0-0.2 0-0.5z"/>
									</g>
								</g>
								<g id="&lt;Clip Group&gt;" clip-path="url(#cp4)">
									<path id="&lt;Path&gt;" class="s13" d="m843.9 693.2q-0.1 2-0.5 4-0.4 2-1.1 3.9-0.8 2-1.9 3.9-1.2 2.2-2.8 4.2-1.8 2.4-4.3 4.6-3.7 3.5-8.8 6.6-0.4 0.2-0.8 0.5c-4.7 2.7-9.8 4.9-15.3 6.7-4.2 1.3-8.6 2.4-13.1 3.2q-4.4 0.8-8.9 1.3-3.8 0.3-7.7 0.5-3.6 0.1-7.1 0-3.5-0.1-6.9-0.4-3.4-0.2-6.7-0.7-3.5-0.5-6.9-1.2-3.7-0.8-7.3-1.8-4.3-1.2-8.4-2.8-5.3-2.1-10-4.8c-13.7-8-20.6-18.3-20.6-28.7v13.2c0 10.4 6.8 20.8 20.5 28.7q4.7 2.7 10.1 4.8 4 1.6 8.4 2.8 3.6 1 7.2 1.8 3.4 0.7 6.9 1.2 3.4 0.5 6.8 0.8 3.4 0.2 6.8 0.3 3.6 0.1 7.2 0 3.8-0.1 7.7-0.5 4.5-0.5 8.8-1.2c4.6-0.9 9-2 13.2-3.3 5.5-1.8 10.6-4 15.2-6.7q0.5-0.3 0.9-0.5 5-3.1 8.8-6.5 2.4-2.3 4.3-4.7 1.6-2 2.8-4.1 1.1-2 1.8-4 0.8-1.9 1.2-3.9 0.4-2 0.4-4 0-0.3 0-0.6l0.1-13.2q0 0.3 0 0.6z"/>
								</g>
								<path id="&lt;Path&gt;" class="s9" d="m823.3 663.9c27.3 15.7 27.4 41.2 0.4 57-27.1 15.7-71.1 15.7-98.3 0-27.3-15.8-27.4-41.3-0.4-57 27.1-15.7 71.1-15.7 98.3 0z"/>
								<path id="&lt;Path&gt;" class="s1" d="m731.6 717.2c23.8 13.7 62.1 13.7 85.7 0 23.6-13.7 23.4-35.9-0.3-49.6-23.7-13.7-62.1-13.7-85.6 0-23.6 13.7-23.5 35.9 0.2 49.6z"/>
								<path id="&lt;Path&gt;" class="s41" d="m736.5 670.8c23.3-13.5 61.1-13.7 84.9-0.3q-2-1.5-4.4-2.9c-23.7-13.7-62.1-13.7-85.6 0-23.6 13.7-23.5 35.9 0.2 49.6q0.4 0.2 0.7 0.4c-19.2-13.8-17.8-34 4.2-46.8z"/>
								<g id="&lt;Group&gt;">
									<path id="&lt;Compound Path&gt;" class="s41" d="m810.9 673l-29.1 9.9-5.9-12.9-5.8 12.9-29.2-9.9 17.2 16.9-22.3 3.4 22.3 3.4-16.9 16.9 29.1-9.9 5.9 12.9 5.8-12.9 29.2 9.9-17.2-16.9 22.3-3.4-22.3-3.4z"/>
								</g>
								<g id="&lt;Group&gt;">
									<path id="&lt;Path&gt;" class="s13" d="m808 670.9l-0.1 3.8-21.5 26.9-24.9-14.4 4-1.4 20.9 12 21.5-26.8z"/>
									<path id="&lt;Path&gt;" class="s13" d="m786.4 701.6l-24.9-14.4-21.5 27z"/>
									<g id="&lt;Group&gt;">
										<path id="&lt;Path&gt;" class="s25" d="m786.4 697.8l-24.9-14.3-21.5 26.9z"/>
										<path id="&lt;Path&gt;" class="s14" d="m786.4 697.8l21.5-26.9-46.4 12.6 24.9 14.3 21.5-26.9"/>
									</g>
									<g id="&lt;Group&gt;">
										<path id="&lt;Path&gt;" class="s13" d="m779.1 690.2q-0.3 0.2-0.7 0.4c-3 1.8-7.9 1.8-10.9 0q-0.4-0.2-0.7-0.4 0 0 0 0c-1-0.8-1.6-1.8-1.6-2.7v4.2q0 0 0 0c0 1.1 0.8 2.3 2.3 3.2 3 1.7 7.9 1.7 10.9 0 1.5-0.9 2.3-2 2.3-3.2v-4.2c0 0.9-0.6 1.9-1.6 2.7z"/>
										<path id="&lt;Path&gt;" class="s1" d="m778.4 684.3c-3-1.7-7.9-1.7-10.9 0-2.8 1.6-3 4.1-0.7 5.9q0.3 0.2 0.7 0.4c3 1.8 7.9 1.8 10.9 0q0.4-0.2 0.7-0.4c1-0.8 1.6-1.8 1.6-2.7 0-1.2-0.8-2.3-2.3-3.2z"/>
										<path id="&lt;Path&gt;" class="s13" d="m775.3 686.1c-1.3-0.8-3.4-0.8-4.8 0-1.2 0.7-1.3 1.8-0.2 2.6q0.1 0.1 0.3 0.2c1.3 0.7 3.4 0.7 4.7 0q0.2-0.1 0.3-0.2c0.5-0.4 0.7-0.8 0.7-1.2 0-0.5-0.3-1-1-1.4z"/>
									</g>
									<path id="&lt;Path&gt;" class="s14" d="m740 714.2v-3.8l46.4-12.6v3.8z"/>
								</g>
							</g>
						</g>
						<g id="&lt;Group&gt;">
							<g id="&lt;Group&gt;" style="opacity: .1;mix-blend-mode: multiply">
								<g id="&lt;Group&gt;">
									<path id="&lt;Path&gt;" class="s0" d="m786.8 521.8c2.7 1.5 2.8 4.1 0.1 5.6l-80.2 46.6c-2.7 1.6-7.1 1.6-9.8 0l-57.9-33.4c-4.7-2.7-4.7-7-0.1-9.7l73.3-42.6c4.6-2.6 12.1-2.6 16.7 0z"/>
								</g>
							</g>
							<g id="&lt;Group&gt;">
								<g id="&lt;Group&gt;">
									<path id="&lt;Path&gt;" class="s20" d="m638.7 527.9l84.9-38.9 62.3 30.4-136.9 16z"/>
									<g id="&lt;Group&gt;">
										<path id="&lt;Path&gt;" class="s25" d="m784.3 500.6c2.6 1.5 2.6 3.9 0 5.4l-77 44.8c-2.6 1.5-6.8 1.5-9.4 0l-55.7-32.1c-4.4-2.6-4.4-6.8 0-9.3l70.3-40.9c4.5-2.6 11.7-2.6 16.1 0z"/>
									</g>
									<g id="&lt;Group&gt;">
										<path id="&lt;Path&gt;" class="s5" d="m643.8 530.8l55.7 32.2q0.2 0.1 0.4 0.1l0.2 0.1q0.2 0.1 0.4 0.2l0.5 0.1c0 0 0.3 0 0.3 0l0.5 0.1q0.2 0 0.4 0h0.3c0.3 0 0.5 0 0.7 0l0.5-0.1q0.1 0 0.2 0 0.2-0.1 0.4-0.2h0.3c0.3-0.2 0.6-0.2 0.7-0.3l77-44.8c0.1 0 0.2-0.2 0.2-0.2l0.1-6.9-73.6 42.8c-0.5 0.3-1.1 0.6-1.9 0.8q-0.4 0.1-0.7 0.2-0.4 0.2-0.9 0.3-0.5 0.1-1.1 0.1l-0.3 0.1q-0.7 0.1-1.4 0.1h-0.2q-0.8 0-1.5-0.1h-0.2q-0.7-0.1-1.4-0.3h-0.2q-0.8-0.2-1.4-0.4l-0.2-0.1q-0.8-0.3-1.5-0.7l-55.5-31.6c-1.1-0.6-1.8-1.8-1.8-3l0.1-5.3c0 1.7 1.1 3.4 3.3 4.7l55.7 32.1q0.5 0.3 1 0.5 0.1 0 0.2 0 0.4 0.2 0.9 0.3 0.1 0 0.2 0.1 0.5 0.1 1 0.1 0.1 0.1 0.2 0.1 0.5 0 1.1 0 0.1 0 0.2 0 0.5 0 1.1 0 0.1-0.1 0.2-0.1 0.4 0 0.8-0.1 0.3-0.1 0.6-0.2 0.3 0 0.5-0.1 0.7-0.3 1.4-0.6l77-44.8c0.1-0.1 0.3-0.2 0.4-0.3q0.3-0.1 0.5-0.3 0.3-0.3 0.5-0.6 0 0 0.1-0.1 0.2-0.3 0.3-0.6 0-0.1 0-0.1 0.1-0.3 0.1-0.7l-0.1 15.3q0 0 0 0 0 0.2-0.1 0.4 0 0.1-0.1 0.2 0 0.1 0 0.1 0 0 0 0.1-0.1 0.2-0.2 0.3 0 0.1-0.1 0.2 0 0.1-0.1 0.1 0 0.1 0 0.1-0.2 0.3-0.4 0.5-0.1 0-0.1 0-0.2 0.2-0.5 0.4c-0.1 0-0.2 0.1-0.3 0.2q0 0-0.1 0.1l-77 44.7q-0.6 0.4-1.3 0.6-0.1 0-0.2 0.1-0.1 0-0.3 0.1-0.3 0-0.7 0.1-0.1 0-0.2 0.1-0.3 0-0.6 0.1-0.1 0-0.2 0 0 0-0.1 0-0.3 0-0.7 0-0.2 0-0.3 0-0.1 0-0.2 0-0.1 0-0.2 0-0.3 0-0.6 0-0.2 0-0.3 0-0.1 0-0.1 0-0.2 0-0.3-0.1-0.3 0-0.6-0.1-0.1 0-0.2 0-0.1 0-0.2-0.1-0.2 0-0.3 0-0.3-0.1-0.6-0.2-0.1-0.1-0.2-0.1 0 0 0 0-0.5-0.2-1-0.5l-55.6-32.1c-2.3-1.3-3.4-3-3.4-4.7v-1.3c2.3 1.4 4.6 2.6 5.1 2.9z"/>
										<path id="&lt;Path&gt;" class="s42" d="m643.6 524l52.5 29.9q0.7 0.4 1.5 0.7l0.2 0.1q0.6 0.2 1.4 0.4h0.2q0.7 0.2 1.4 0.3h0.2q0.7 0.1 1.5 0.1h0.2q0.7 0 1.4-0.1l0.3-0.1q0.6 0 1.1-0.1 0.5-0.1 0.9-0.3 0.3-0.1 0.7-0.2c0.8-0.2 1.4-0.5 1.9-0.8l73.6-42.8-0.1 6.9c0 0-0.1 0.2-0.2 0.2l-77 44.8c-0.1 0.1-0.4 0.1-0.7 0.3h-0.3q-0.2 0.1-0.4 0.2-0.1 0-0.2 0l-0.5 0.1c-0.2 0-0.4 0-0.7 0h-0.3q-0.2 0-0.4 0l-0.5-0.1c0 0-0.3 0-0.3 0l-0.5-0.1q-0.2-0.1-0.4-0.2l-0.2-0.1q-0.2 0-0.4-0.1l-55.7-32.2q-0.1 0-0.2-0.1z"/>
										<path id="&lt;Path&gt;" class="s43" d="m696.1 553.9q0.7 0.4 1.5 0.7l0.2 0.1q0.6 0.2 1.4 0.4h0.2q0.7 0.2 1.4 0.3h0.2q0.7 0.1 1.5 0.1h0.2q0.7 0 1.4-0.1l0.3-0.1q0.6 0 1.1-0.1 0.5-0.1 0.9-0.3 0.3-0.1 0.7-0.2 0 0 0 0v7.2l-1.8 1.1c-0.1 0.1-0.4 0.1-0.7 0.3h-0.3q-0.2 0.1-0.4 0.2-0.1 0-0.2 0l-0.5 0.1c-0.2 0-0.4 0-0.7 0h-0.3q-0.2 0-0.4 0l-0.5-0.1c0 0-0.3 0-0.3 0l-0.5-0.1q-0.2-0.1-0.4-0.2l-0.2-0.1q-0.2 0-0.4-0.1l-55.7-32.2q-0.1 0-0.2-0.1v-6.7z"/>
									</g>
								</g>
								<g id="&lt;Group&gt;">
									<path id="&lt;Compound Path&gt;" fill-rule="evenodd" class="s9" d="m736 495c10.4 6 10.4 15.9-0.1 22-9.7 5.6-24.9 6-35.5 1.3q-1.4-0.5-2.7-1.2-1.2-0.7-2.1-1.6c-8.1-6.1-7.3-14.9 2.4-20.5 10.5-6.1 27.6-6.1 38 0zm4.8 15.2l-3.3-2c-1.5 1.8-3.7 3.6-6.3 5.3l4 2.3c2.7-1.6 4.6-3.6 5.6-5.6zm-20.6 7.9c-4 1.1-8.1 1.6-11.8 1.5 4.8 1 10 1.1 15 0.4zm19.9-17.7c0.3 2.1-0.3 4.4-1.9 6.7l3.2 1.8c1-2.8 0.5-5.8-1.3-8.5zm-18 9.3c-2.4 1.3-4.8 2.6-7.3 3.7l5.8 3.3c2.7-0.8 5.4-1.9 7.9-3.3zm13.9-2.3l-5.5-3.2c-2 1.6-4.5 3.2-7.1 4.8l6.4 3.7c2.7-1.7 4.8-3.5 6.2-5.3zm0.7-9.9c-0.6 1.6-2.4 3.6-5 5.8l5.1 3c2-3.2 2-6.4-0.1-8.8zm-23.4 16.6c-4.2 1.8-8.3 3.1-11.3 3.4 4.5 1.4 10.7 1.3 16.8-0.2zm21.2-18.3c-0.8-0.5-3.3-0.4-7.9 1.1q-1.8 0.5-3.7 1.3l7.4 4.3c4.1-3.5 5.4-6 4.2-6.7zm-30.3 13c-4.3 3.3-6.1 5.9-5.6 7.1l0.5 0.3 0.6 0.3c1.2 0.1 3.5-0.1 7.2-1.3 1.6-0.5 3.3-1.2 5-1.9zm25-5.4l-7.8-4.6c-2.7 1.2-5.5 2.6-8.3 4.1l9 5.3c2.9-1.7 5.2-3.4 7.1-4.8zm-17.4 0.3q-3.8 2.2-6.4 4.2l8.1 4.7c2.4-1 4.8-2.3 7.2-3.7zm4.8-9.3l5.1 3c3.7-1.5 7.2-2.5 10-2.8-4.2-1.3-9.6-1.3-15.1-0.2zm-13.6 13.6l-5.5-3.1c-2.7 3.5-2.9 7-0.5 9.7 0.6-1.8 2.8-4.1 6-6.6zm11.7-13.1c-3.2 0.8-6.4 2-9.3 3.6l6.5 3.7c2.6-1.5 5.5-2.9 8.3-4.1zm-4.2 8.1l-6.4-3.8c-2.4 1.5-4.3 3-5.7 4.6l5.7 3.3c1.9-1.4 4.1-2.8 6.4-4.1zm1.5-11.2l3.1 1.8c3.9-0.9 7.9-1.3 11.5-1-4.7-1.1-9.7-1.4-14.6-0.8zm-15.9 12.2l-3.2-1.8c-1.3 2.8-1.1 5.9 0.6 8.6-0.2-2.1 0.7-4.5 2.6-6.8zm13.8-11.9c-3.6 0.6-7 1.7-9.8 3.2l4 2.4c2.9-1.6 6-2.8 9.2-3.6zm-7.1 6.3l-4.1-2.3c-2.3 1.4-4 3.1-5.2 4.9l3.5 2c1.4-1.6 3.4-3.2 5.8-4.6zm27.1 15.8c-2.4 1.4-5.1 2.5-7.9 3.3l3.5 2c3-0.6 5.9-1.6 8.4-3z"/>
									<g id="&lt;Group&gt;">
										<path id="&lt;Path&gt;" class="s9" d="m702.2 531.3l-29.7-17.2c-0.6-0.3-1.6-0.3-2.3 0-0.6 0.4-0.6 1 0.1 1.4l29.7 17.1c0.6 0.4 1.6 0.4 2.3 0 0.6-0.3 0.6-0.9-0.1-1.3z"/>
									</g>
								</g>
							</g>
						</g>
					</g>
				</g>
			</g>
		</g>
	</g>
</svg>